<?xml version="1.0" standalone="no"?>
<!DOCTYPE svg PUBLIC "-//W3C//DTD SVG 20010904//EN"
 "http://www.w3.org/TR/2001/REC-SVG-20010904/DTD/svg10.dtd">
<svg version="1.0" xmlns="http://www.w3.org/2000/svg"
 width="1024.000000pt" height="2404.000000pt" viewBox="0 0 1024.000000 2404.000000"
 preserveAspectRatio="xMidYMid meet">

<g transform="translate(0.000000,2404.000000) scale(0.100000,-0.100000)"
fill="#000000" stroke="none">
<path d="M175 23946 c-41 -18 -83 -69 -90 -109 -3 -18 -4 -5347 -3 -11844 l3
-11812 21 -27 c11 -15 33 -37 48 -48 l27 -21 4939 0 4939 0 27 21 c15 11 37
33 48 48 l21 27 0 11839 0 11839 -21 27 c-11 15 -33 37 -48 48 l-27 21 -4927
2 c-4081 2 -4932 0 -4957 -11z m613 -573 c-21 -5 -24 -23 -5 -24 10 0 10 -2 0
-6 -19 -7 -16 -31 5 -36 9 -3 1 -5 -18 -5 -19 0 -29 2 -22 5 6 2 12 17 12 33
0 16 -6 31 -12 33 -7 3 3 5 22 5 19 0 27 -2 18 -5z m199 -55 c-2 -13 -4 -3 -4
22 0 25 2 35 4 23 2 -13 2 -33 0 -45z m198 52 c10 -16 -5 -49 -20 -44 -7 3
-15 -2 -18 -13 -3 -10 -5 1 -6 25 -1 35 2 42 18 42 11 0 23 -5 26 -10z m63 3
c-10 -2 -18 -9 -18 -14 0 -5 8 -10 18 -10 16 -1 16 -2 0 -6 -10 -2 -18 -11
-18 -18 0 -7 8 -16 18 -18 13 -4 11 -5 -5 -6 -20 -1 -23 4 -23 39 0 35 3 40
23 39 16 -1 18 -2 5 -6z m155 0 c-7 -2 -14 -21 -15 -41 l-1 -37 -4 35 c-3 19
-10 38 -16 42 -7 4 1 7 18 7 17 0 24 -3 18 -6z m175 0 c-10 -2 -18 -9 -18 -14
0 -5 8 -10 18 -10 16 -1 16 -2 0 -6 -10 -2 -18 -11 -18 -18 0 -7 8 -16 18 -18
13 -4 11 -5 -5 -6 -20 -1 -23 4 -23 39 0 35 3 40 23 39 16 -1 18 -2 5 -6z
m-888 -53 c0 -4 -11 -5 -25 -2 -14 2 -25 8 -25 12 0 4 11 5 25 2 14 -2 25 -8
25 -12z m260 11 c0 -5 -11 -11 -25 -13 -14 -3 -25 -3 -25 -1 0 3 34 19 48 22
1 1 2 -3 2 -8z m390 -5 c0 -2 -11 -6 -25 -8 -14 -3 -25 -1 -25 3 0 5 11 9 25
9 14 0 25 -2 25 -4z m170 -10 c0 -3 -4 -8 -10 -11 -5 -3 -10 -1 -10 4 0 6 5
11 10 11 6 0 10 -2 10 -4z m-843 -113 c-12 -3 -16 -10 -12 -21 5 -13 3 -14 -6
-5 -14 14 -3 33 19 32 15 -1 14 -2 -1 -6z m103 -8 c15 -18 10 -45 -12 -59 -12
-7 -21 -7 -28 0 -8 8 -4 10 12 10 18 -1 23 4 23 24 0 19 -5 25 -22 24 -12 0
-20 3 -17 8 8 13 30 9 44 -7z m233 8 c-7 -2 -21 -2 -30 0 -10 3 -4 5 12 5 17
0 24 -2 18 -5z m44 -55 c-2 -13 -4 -3 -4 22 0 25 2 35 4 23 2 -13 2 -33 0 -45z
m87 54 c3 -5 -5 -8 -17 -8 -17 1 -22 -5 -22 -24 0 -20 5 -25 23 -24 16 0 20
-2 12 -10 -13 -13 -44 4 -48 28 -6 31 37 62 52 38z m60 -8 c3 -8 2 -12 -4 -9
-6 3 -10 10 -10 16 0 14 7 11 14 -7z m-508 -53 c-4 -6 -15 -10 -24 -10 -15 1
-14 2 1 6 12 3 16 10 12 21 -5 13 -3 14 6 5 6 -6 8 -16 5 -22z m542 -6 c-3 -3
-9 2 -12 12 -6 14 -5 15 5 6 7 -7 10 -15 7 -18z m-305 3 c-2 -5 -10 -8 -18 -8
-8 0 -16 3 -18 8 -3 4 5 7 18 7 13 0 21 -3 18 -7z m-80 -5 c-7 -2 -19 -2 -25
0 -7 3 -2 5 12 5 14 0 19 -2 13 -5z m665 -1130 c-10 -2 -26 -2 -35 0 -10 3 -2
5 17 5 19 0 27 -2 18 -5z m330 -30 c-10 -2 -26 -2 -35 0 -10 3 -2 5 17 5 19 0
27 -2 18 -5z m1170 -18 c-3 -3 -9 2 -12 12 -6 14 -5 15 5 6 7 -7 10 -15 7 -18z
m596 1 c-3 -9 -10 -16 -15 -16 -6 0 -5 9 1 21 13 24 24 20 14 -5z m-924 10 c0
-9 -30 -14 -35 -6 -4 6 3 10 14 10 12 0 21 -2 21 -4z m-2092 -13 c-10 -2 -26
-2 -35 0 -10 3 -2 5 17 5 19 0 27 -2 18 -5z m195 0 c-7 -2 -21 -2 -30 0 -10 3
-4 5 12 5 17 0 24 -2 18 -5z m702 0 c-11 -3 -23 -10 -27 -17 -5 -7 -8 -7 -8 0
0 16 11 24 34 23 20 -1 20 -1 1 -6z m585 3 c0 -3 -4 -8 -10 -11 -5 -3 -10 -1
-10 4 0 6 5 11 10 11 6 0 10 -2 10 -4z m-1407 -13 c-7 -2 -21 -2 -30 0 -10 3
-4 5 12 5 17 0 24 -2 18 -5z m615 0 c-10 -2 -26 -2 -35 0 -10 3 -2 5 17 5 19
0 27 -2 18 -5z m725 0 c-7 -2 -21 -2 -30 0 -10 3 -4 5 12 5 17 0 24 -2 18 -5z
m815 0 c-10 -2 -26 -2 -35 0 -10 3 -2 5 17 5 19 0 27 -2 18 -5z m470 0 c-17
-3 -28 -11 -28 -20 0 -9 -3 -14 -6 -10 -15 14 7 37 33 36 l28 -2 -27 -4z
m-391 -25 c-3 -8 -6 -5 -6 6 -1 11 2 17 5 13 3 -3 4 -12 1 -19z m64 -5 c13
-16 12 -17 -3 -4 -10 7 -18 15 -18 17 0 8 8 3 21 -13z m-1483 -10 c-10 -2 -28
-2 -40 0 -13 2 -5 4 17 4 22 1 32 -1 23 -4z m595 0 c-7 -2 -21 -2 -30 0 -10 3
-4 5 12 5 17 0 24 -2 18 -5z m-1093 -503 c0 -5 -2 -10 -4 -10 -3 0 -8 5 -11
10 -3 6 -1 10 4 10 6 0 11 -4 11 -10z m115 0 c3 -5 2 -10 -4 -10 -5 0 -13 5
-16 10 -3 6 -2 10 4 10 5 0 13 -4 16 -10z m115 0 c0 -5 -2 -10 -4 -10 -3 0 -8
5 -11 10 -3 6 -1 10 4 10 6 0 11 -4 11 -10z m165 0 c-3 -5 -11 -10 -16 -10 -6
0 -7 5 -4 10 3 6 11 10 16 10 6 0 7 -4 4 -10z m160 0 c3 -5 2 -10 -4 -10 -5 0
-13 5 -16 10 -3 6 -2 10 4 10 5 0 13 -4 16 -10z m1062 -37 c-3 -10 -5 -2 -5
17 0 19 2 27 5 18 2 -10 2 -26 0 -35z m78 37 c-3 -5 -12 -10 -18 -10 -7 0 -6
4 3 10 19 12 23 12 15 0z m140 0 c4 -6 2 -17 -5 -24 -8 -11 -8 -15 2 -19 8 -4
7 -6 -4 -6 -21 -1 -23 10 -6 27 10 10 10 15 -2 22 -9 6 -10 10 -3 10 6 0 15
-5 18 -10z m1210 0 c4 -6 2 -17 -5 -24 -8 -11 -8 -15 2 -19 8 -4 7 -6 -4 -6
-21 -1 -23 10 -6 27 10 10 10 15 -2 22 -9 6 -10 10 -3 10 6 0 15 -5 18 -10z
m-1787 -25 c-3 -3 -9 2 -12 12 -6 14 -5 15 5 6 7 -7 10 -15 7 -18z m-1188 -5
c-8 -15 -8 -20 2 -20 9 0 9 -3 0 -12 -7 -7 -12 -20 -12 -29 0 -9 -7 -22 -15
-29 -9 -8 -15 -9 -15 -2 0 6 5 14 11 18 6 3 8 16 5 28 -3 12 1 32 10 44 19 28
28 29 14 2z m119 4 c-10 -13 -10 -17 2 -25 8 -5 9 -9 4 -9 -6 0 -15 -14 -20
-32 -6 -17 -17 -34 -25 -36 -13 -5 -13 -3 -1 11 7 9 11 28 9 42 -3 14 -2 25 2
25 4 0 10 9 13 20 3 11 11 20 17 20 9 0 9 -4 -1 -16z m935 8 c3 -5 -1 -9 -9
-9 -8 0 -12 4 -9 9 3 4 7 8 9 8 2 0 6 -4 9 -8z m646 4 c0 -2 -7 -7 -16 -10 -8
-3 -12 -2 -9 4 6 10 25 14 25 6z m835 -14 c-3 -3 -11 0 -18 7 -9 10 -8 11 6 5
10 -3 15 -9 12 -12z m375 14 c0 -2 -7 -7 -16 -10 -8 -3 -12 -2 -9 4 6 10 25
14 25 6z m-3226 -39 c12 -32 -12 -64 -38 -54 -23 9 -20 48 4 54 17 5 18 8 8
21 -11 13 -10 14 2 10 8 -2 19 -17 24 -31z m72 19 c14 17 14 16 0 -8 -9 -15
-16 -38 -17 -50 -1 -17 -3 -15 -9 9 -4 18 -14 41 -21 50 -11 15 -9 14 9 -1 22
-19 23 -19 38 0z m1634 2 c-24 -10 -24 -10 -5 -18 17 -7 17 -9 3 -9 -10 -1
-18 -8 -18 -16 0 -7 8 -19 18 -24 9 -6 12 -11 6 -11 -10 0 -38 25 -46 41 -5
12 34 49 51 48 10 0 6 -4 -9 -11z m223 5 c-30 -6 -29 -21 3 -33 31 -12 29 -44
-4 -46 -19 -1 -19 -1 -2 3 28 6 25 30 -5 37 -39 10 -32 47 9 45 19 -2 19 -2
-1 -6z m260 0 c-27 -5 -31 -32 -5 -34 16 -1 16 -2 0 -6 -26 -6 -22 -31 5 -36
12 -2 4 -5 -18 -6 -45 -1 -65 12 -65 44 0 32 20 45 65 44 22 -1 30 -4 18 -6z
m527 -5 c-24 -10 -24 -10 -5 -18 16 -7 16 -9 3 -9 -22 -1 -16 -33 8 -42 14 -6
15 -8 4 -8 -22 -1 -40 19 -40 44 0 25 18 45 40 44 8 0 4 -5 -10 -11z m683 5
c-27 -5 -31 -32 -5 -34 16 -1 16 -2 0 -6 -26 -6 -22 -31 5 -36 12 -2 4 -5 -18
-6 -45 -1 -65 12 -65 44 0 32 20 45 65 44 22 -1 30 -4 18 -6z m-3143 -43 c0
-22 -4 -40 -10 -40 -5 0 -10 18 -10 40 0 22 5 40 10 40 6 0 10 -18 10 -40z
m107 -22 c-2 -13 -4 -3 -4 22 0 25 2 35 4 23 2 -13 2 -33 0 -45z m123 22 c0
-22 -4 -40 -10 -40 -5 0 -10 18 -10 40 0 22 5 40 10 40 6 0 10 -18 10 -40z
m137 -22 c-2 -13 -4 -3 -4 22 0 25 2 35 4 23 2 -13 2 -33 0 -45z m180 0 c-2
-13 -4 -3 -4 22 0 25 2 35 4 23 2 -13 2 -33 0 -45z m123 32 c0 -25 -4 -30 -24
-30 -19 0 -25 6 -28 30 -4 27 -2 30 24 30 24 0 28 -4 28 -30z m68 18 c19 -19
14 -28 -14 -28 -22 0 -25 -2 -14 -15 7 -8 17 -12 24 -8 7 4 7 1 -1 -7 -10 -11
-15 -11 -28 0 -8 7 -15 20 -15 29 0 17 18 41 30 41 3 0 11 -5 18 -12z m52 2
c0 -5 -5 -10 -11 -10 -5 0 -7 5 -4 10 3 6 8 10 11 10 2 0 4 -4 4 -10z m118 -3
c19 -12 14 -27 -9 -27 -12 0 -19 -5 -16 -12 2 -7 10 -12 16 -10 6 1 11 -2 11
-7 0 -5 -18 -8 -41 -7 -46 2 -66 24 -50 54 10 19 63 24 89 9z m109 -49 c-2
-13 -4 -5 -4 17 -1 22 1 32 4 23 2 -10 2 -28 0 -40z m181 29 c2 -12 -3 -17
-17 -17 -23 0 -29 -16 -8 -23 7 -2 6 -3 -3 -3 -16 1 -25 29 -16 52 8 20 40 14
44 -9z m49 17 c-3 -3 -12 -4 -19 -1 -8 3 -5 6 6 6 11 1 17 -2 13 -5z m50 -26
c-3 -7 -5 -2 -5 12 0 14 2 19 5 13 2 -7 2 -19 0 -25z m90 -20 c-2 -13 -4 -5
-4 17 -1 22 1 32 4 23 2 -10 2 -28 0 -40z m181 30 c2 -12 -5 -18 -25 -20 l-28
-4 25 -12 c17 -8 19 -11 6 -9 -28 3 -43 32 -26 52 16 19 44 16 48 -7z m200 10
c18 -18 14 -26 -15 -30 l-28 -4 25 -12 c17 -8 19 -11 6 -9 -28 3 -43 32 -27
51 16 19 23 20 39 4z m279 -40 c-2 -13 -4 -5 -4 17 -1 22 1 32 4 23 2 -10 2
-28 0 -40z m117 37 c8 -8 19 -15 25 -15 14 0 14 17 1 23 -6 3 -5 4 2 3 23 -5
22 -36 -1 -36 -25 0 -28 -17 -3 -23 9 -2 -3 -3 -28 -3 -35 1 -46 5 -48 19 -8
43 22 62 52 32z m73 -37 c-2 -13 -4 -5 -4 17 -1 22 1 32 4 23 2 -10 2 -28 0
-40z m300 0 c-2 -13 -4 -5 -4 17 -1 22 1 32 4 23 2 -10 2 -28 0 -40z m63 25
l-22 -28 24 -6 c20 -6 18 -7 -10 -8 l-33 -1 20 29 21 30 -22 4 c-17 3 -14 5
10 6 l33 1 -21 -27z m124 12 c8 -8 19 -15 25 -15 14 0 14 17 1 23 -6 3 -5 4 2
3 23 -5 22 -36 -1 -36 -25 0 -28 -17 -3 -23 9 -2 -3 -3 -28 -3 -35 1 -46 5
-48 19 -8 43 22 62 52 32z m141 5 c3 -6 -1 -7 -9 -4 -18 7 -21 14 -7 14 6 0
13 -4 16 -10z m113 -2 c18 -18 14 -26 -15 -30 l-28 -4 25 -12 c17 -8 19 -11 6
-9 -28 3 -43 32 -27 51 16 19 23 20 39 4z m-2392 -18 c0 -12 -4 -16 -9 -11 -5
5 -6 14 -3 20 10 15 12 14 12 -9z m2267 -1 c21 -1 21 -2 2 -6 -11 -3 -23 -10
-27 -17 -4 -6 -7 3 -7 19 0 17 3 24 6 18 2 -7 14 -14 26 -14z m-2936 -4 c0 -8
-4 -12 -9 -9 -5 3 -6 10 -3 15 9 13 12 11 12 -6z m1145 0 c0 -5 -5 -11 -11
-13 -6 -2 -11 4 -11 13 0 9 5 15 11 13 6 -2 11 -8 11 -13z m-272 -30 c0 -19
-4 -35 -8 -35 -4 0 -6 16 -4 35 2 19 6 35 8 35 2 0 4 -16 4 -35z m-520 -5 c0
-11 -2 -20 -4 -20 -2 0 -6 9 -9 20 -3 11 -1 20 4 20 5 0 9 -9 9 -20z m210 4
c0 -8 -4 -12 -10 -9 -5 3 -10 10 -10 16 0 5 5 9 10 9 6 0 10 -7 10 -16z m30
-4 c0 -11 -2 -20 -4 -20 -2 0 -6 9 -9 20 -3 11 -1 20 4 20 5 0 9 -9 9 -20z
m450 1 c0 -6 -4 -12 -8 -15 -5 -3 -9 1 -9 9 0 8 4 15 9 15 4 0 8 -4 8 -9z
m1021 -14 c-10 -9 -11 -8 -5 6 3 10 9 15 12 12 3 -3 0 -11 -7 -18z m369 14 c0
-6 -4 -12 -8 -15 -5 -3 -9 1 -9 9 0 8 4 15 9 15 4 0 8 -4 8 -9z m517 3 c-3 -3
-12 -4 -19 -1 -8 3 -5 6 6 6 11 1 17 -2 13 -5z m1352 -882 c13 10 13 8 -1 -6
-16 -18 -38 -15 -38 7 0 8 3 8 12 -1 9 -9 15 -9 27 0z m-169 -12 c0 -5 -4 -10
-10 -10 -5 0 -10 5 -10 10 0 6 5 10 10 10 6 0 10 -4 10 -10z m40 0 c0 -5 -4
-10 -10 -10 -5 0 -10 5 -10 10 0 6 5 10 10 10 6 0 10 -4 10 -10z m-148 -30 c6
0 8 -3 5 -6 -3 -4 3 -18 13 -32 28 -35 26 -78 -5 -98 -21 -14 -31 -15 -50 -6
-21 10 -25 19 -25 52 0 33 4 42 25 52 13 6 22 15 19 20 -3 4 -9 6 -13 4 -4 -3
-8 2 -8 10 0 9 6 13 14 9 8 -3 20 -5 25 -5z m91 -20 c10 -16 22 -30 27 -30 5
0 17 14 27 30 9 17 21 30 26 30 9 0 4 -10 -25 -52 -10 -15 -18 -44 -18 -67 0
-23 -4 -41 -10 -41 -5 0 -10 18 -10 41 0 23 -8 52 -18 67 -29 42 -34 52 -25
52 5 0 17 -13 26 -30z m227 19 c0 -6 -21 -36 -46 -67 l-47 -57 44 -3 c73 -5
70 -22 -4 -22 -37 0 -67 3 -67 8 0 4 23 35 50 70 l51 62 -51 0 c-27 0 -50 5
-50 10 0 6 27 10 60 10 36 0 60 -4 60 -11z m60 1 c0 -5 -4 -10 -10 -10 -5 0
-10 5 -10 10 0 6 5 10 10 10 6 0 10 -4 10 -10z m-139 -709 c5 9 9 10 9 2 0
-22 -22 -26 -38 -7 -16 17 -16 17 1 4 16 -12 20 -12 28 1z m-271 -56 c0 -7 7
-18 15 -25 9 -7 15 -29 15 -51 0 -32 -5 -42 -25 -51 -19 -9 -29 -8 -50 6 -37
24 -35 70 5 95 28 17 32 33 7 27 -7 -2 -9 -1 -4 1 4 3 5 8 2 13 -3 4 4 6 15 3
11 -3 20 -11 20 -18z m90 -11 l22 -35 26 35 c14 20 29 36 34 36 5 0 -5 -20
-22 -44 -19 -28 -31 -59 -32 -83 l-1 -38 -4 39 c-3 22 -18 59 -34 83 -17 24
-26 43 -20 43 5 0 19 -16 31 -36z m230 30 c0 -3 -23 -35 -51 -70 l-51 -64 51
0 c28 0 51 -4 51 -10 0 -6 -27 -10 -60 -10 -42 0 -60 4 -60 13 1 6 21 37 45
67 l45 55 -45 3 c-67 5 -55 22 15 22 33 0 60 -3 60 -6z m169 -96 c-1 -24 -3
-27 -6 -10 -4 20 -10 22 -64 22 -33 0 -59 4 -59 10 0 6 28 10 65 10 l65 0 -1
-32z m-389 -673 c0 -7 7 -18 15 -25 9 -7 15 -29 15 -51 0 -32 -5 -42 -25 -51
-19 -9 -29 -8 -50 6 -37 24 -35 70 5 95 28 17 32 33 7 27 -7 -2 -9 -1 -4 1 4
3 5 8 2 13 -3 4 4 6 15 3 11 -3 20 -11 20 -18z m90 -11 l22 -35 26 35 c14 20
29 36 34 36 5 0 -5 -20 -22 -44 -19 -28 -31 -59 -32 -83 l-1 -38 -4 39 c-3 22
-18 59 -34 83 -17 24 -26 43 -20 43 5 0 19 -16 31 -36z m144 -45 c-18 -20 -18
-22 -1 -34 9 -6 17 -16 17 -20 0 -5 -12 2 -26 16 l-25 24 21 17 c30 24 37 23
14 -3z m43 -1 c-18 -9 -18 -11 0 -31 18 -21 18 -21 -2 -7 -11 8 -22 16 -24 17
-2 2 4 12 14 23 10 11 21 18 24 14 3 -3 -2 -10 -12 -16z m-177 -648 c0 -5 -4
-10 -10 -10 -5 0 -10 5 -10 10 0 6 5 10 10 10 6 0 10 -4 10 -10z m40 0 c0 -5
-4 -10 -10 -10 -5 0 -10 5 -10 10 0 6 5 10 10 10 6 0 10 -4 10 -10z m80 -45
c0 -19 -5 -35 -11 -35 -6 0 -9 7 -5 15 3 8 1 15 -4 15 -6 0 -10 9 -10 20 0 11
7 20 15 20 10 0 15 -11 15 -35z m-228 15 c6 0 8 -3 5 -6 -3 -4 3 -18 13 -32
28 -35 26 -78 -5 -98 -21 -14 -31 -15 -50 -6 -21 10 -25 19 -25 52 0 33 4 42
25 52 13 6 22 15 19 20 -3 4 -9 6 -13 4 -4 -3 -8 2 -8 10 0 9 6 13 14 9 8 -3
20 -5 25 -5z m91 -20 c10 -16 22 -30 27 -30 5 0 17 14 27 30 9 17 21 30 26 30
9 0 4 -10 -25 -52 -10 -15 -18 -44 -18 -67 0 -23 -4 -41 -10 -41 -5 0 -10 18
-10 41 0 23 -8 52 -18 67 -29 42 -34 52 -25 52 5 0 17 -13 26 -30z m207 20 c0
-5 -4 -10 -10 -10 -5 0 -10 5 -10 10 0 6 5 10 10 10 6 0 10 -4 10 -10z m0
-100 c0 -27 -4 -50 -10 -50 -5 0 -10 23 -10 50 0 28 5 50 10 50 6 0 10 -22 10
-50z m-4285 -1420 c5 -8 11 -7 21 1 12 10 13 9 8 -5 -8 -20 -28 -21 -44 -1 -8
9 -9 15 -2 15 6 0 14 -5 17 -10z m-145 -10 c0 -5 -4 -10 -10 -10 -5 0 -10 5
-10 10 0 6 5 10 10 10 6 0 10 -4 10 -10z m40 0 c0 -5 -4 -10 -10 -10 -5 0 -10
5 -10 10 0 6 5 10 10 10 6 0 10 -4 10 -10z m-138 -14 c19 6 21 4 11 -7 -9 -11
-8 -20 2 -39 44 -79 -34 -167 -82 -94 -15 24 -15 29 -2 53 11 18 23 26 42 26
19 -1 26 3 22 13 -3 7 -5 16 -5 18 0 2 -12 2 -27 -2 -18 -4 -24 -2 -15 3 8 6
10 17 5 29 -6 17 -5 17 10 6 10 -9 25 -11 39 -6z m85 -36 c9 -16 20 -30 23
-30 3 0 14 14 23 30 10 17 22 30 28 30 14 0 11 -8 -16 -48 -16 -23 -25 -51
-25 -74 0 -21 -4 -38 -10 -38 -5 0 -10 17 -10 38 0 23 -9 51 -25 74 -27 40
-30 48 -16 48 6 0 18 -13 28 -30z m233 24 c0 -3 -23 -33 -50 -67 l-50 -62 50
-3 c73 -4 61 -22 -15 -22 -39 0 -65 4 -65 11 0 6 21 36 46 67 l47 57 -47 3
c-70 5 -55 22 19 22 36 0 65 -3 65 -6z m60 -4 c0 -5 -4 -10 -10 -10 -5 0 -10
5 -10 10 0 6 5 10 10 10 6 0 10 -4 10 -10z m50 0 c0 -5 -4 -10 -10 -10 -5 0
-10 5 -10 10 0 6 5 10 10 10 6 0 10 -4 10 -10z m-84 -368 c-9 -9 -37 8 -31 18
5 8 11 7 21 -1 8 -6 12 -14 10 -17z m120 1 c-7 -7 -26 7 -26 19 0 6 6 6 15 -2
9 -7 13 -15 11 -17z m-356 -3 c0 -5 -4 -10 -10 -10 -5 0 -10 5 -10 10 0 6 5
10 10 10 6 0 10 -4 10 -10z m35 0 c3 -5 1 -10 -4 -10 -6 0 -11 5 -11 10 0 6 2
10 4 10 3 0 8 -4 11 -10z m45 -9 c0 -29 -15 -33 -16 -5 -1 13 2 24 7 24 5 0 9
-9 9 -19z m40 -6 c0 -8 -4 -17 -10 -20 -6 -4 -10 5 -10 20 0 15 4 24 10 20 6
-3 10 -12 10 -20z m40 6 c0 -29 -15 -33 -16 -5 -1 13 2 24 7 24 5 0 9 -9 9
-19z m40 -6 c0 -8 -4 -17 -10 -20 -6 -4 -10 5 -10 20 0 15 4 24 10 20 6 -3 10
-12 10 -20z m100 11 c-7 -7 -14 -6 -21 1 -9 9 -7 12 9 10 14 -1 18 -5 12 -11z
m400 4 c0 -5 -4 -10 -10 -10 -5 0 -10 5 -10 10 0 6 5 10 10 10 6 0 10 -4 10
-10z m270 0 c0 -5 -4 -10 -10 -10 -5 0 -10 5 -10 10 0 6 5 10 10 10 6 0 10 -4
10 -10z m101 -3 c-7 -7 -14 -8 -21 -1 -6 6 -2 10 12 11 16 2 18 -1 9 -10z
m229 3 c0 -5 -4 -10 -10 -10 -5 0 -10 5 -10 10 0 6 5 10 10 10 6 0 10 -4 10
-10z m46 -1 c3 -6 0 -17 -7 -25 -12 -11 -14 -9 -15 11 -2 26 10 33 22 14z m34
-8 c0 -11 -4 -22 -9 -25 -5 -3 -8 6 -8 19 0 14 3 25 8 25 5 0 9 -9 9 -19z
m104 3 c32 -32 10 -94 -34 -94 -26 0 -50 27 -50 55 0 28 24 55 50 55 10 0 26
-7 34 -16z m-1610 -41 c17 -48 14 -65 -6 -45 -16 16 -45 15 -51 0 -2 -7 -7
-10 -11 -7 -10 9 25 99 39 99 7 0 20 -21 29 -47z m46 -3 c0 -27 -4 -50 -10
-50 -5 0 -10 23 -10 50 0 28 5 50 10 50 6 0 10 -22 10 -50z m633 17 c-2 -29 6
-34 24 -16 9 9 12 4 11 -17 -1 -26 -4 -29 -40 -32 -41 -3 -60 17 -39 42 6 7 8
16 5 19 -12 12 6 38 23 35 13 -3 17 -12 16 -31z m367 23 c0 -5 -9 -10 -20 -10
-11 0 -20 -4 -20 -10 0 -5 9 -10 20 -10 11 0 20 -4 20 -10 0 -5 -9 -10 -20
-10 -11 0 -20 -4 -20 -10 0 -5 9 -10 19 -10 11 0 23 -4 26 -10 9 -15 -88 -13
-103 2 -7 7 -12 24 -12 38 0 14 5 31 12 38 14 14 98 16 98 2z m-882 -32 c2
-13 -3 -18 -17 -18 -12 0 -21 -4 -21 -10 0 -5 9 -10 21 -10 11 0 17 -4 14 -10
-11 -17 -44 -11 -55 10 -15 28 4 62 33 58 12 -2 23 -11 25 -20z m202 -18 c0
-22 -4 -40 -10 -40 -5 0 -10 18 -10 40 0 22 5 40 10 40 6 0 10 -18 10 -40z
m80 28 c0 -6 -7 -20 -17 -30 -15 -17 -15 -18 0 -18 10 0 17 -4 17 -10 0 -5
-13 -10 -30 -10 -34 0 -38 14 -13 42 15 17 15 18 0 18 -10 0 -17 5 -17 10 0 6
14 10 30 10 17 0 30 -5 30 -12z m40 -28 c0 -22 -4 -40 -10 -40 -5 0 -10 18
-10 40 0 22 5 40 10 40 6 0 10 -18 10 -40z m340 20 c9 -18 8 -20 -15 -20 -14
0 -25 -4 -25 -10 0 -5 9 -10 20 -10 11 0 20 -4 20 -10 0 -11 -20 -13 -44 -4
-19 7 -22 60 -3 67 24 10 36 7 47 -13z m308 -2 c2 -12 -5 -18 -25 -21 -27 -4
-27 -5 -5 -12 26 -9 29 -25 4 -25 -37 0 -55 43 -30 68 17 17 52 11 56 -10z
m82 10 c0 -6 -7 -20 -17 -30 -15 -17 -15 -18 0 -18 10 0 17 -4 17 -10 0 -5
-16 -10 -35 -10 -41 0 -43 5 -13 37 18 20 19 23 5 23 -9 0 -17 5 -17 10 0 6
14 10 30 10 17 0 30 -5 30 -12z m128 -11 c2 -12 -3 -17 -17 -17 -12 0 -21 -4
-21 -10 0 -5 9 -10 21 -10 11 0 18 -4 15 -8 -3 -5 -26 -9 -51 -10 -52 0 -74
22 -55 58 14 26 103 25 108 -3z m82 3 c9 -18 8 -20 -15 -20 -14 0 -25 -4 -25
-10 0 -5 9 -10 20 -10 11 0 20 -4 20 -10 0 -11 -20 -13 -44 -4 -19 7 -22 60
-3 67 24 10 36 7 47 -13z m-870 -86 c0 -8 -8 -14 -17 -13 -10 0 -13 3 -6 5 7
3 9 12 6 21 -4 11 -2 14 5 9 7 -4 12 -14 12 -22z m334 -6 c-10 -16 -22 -7 -17
13 4 15 8 17 14 8 4 -7 5 -17 3 -21z m-816 -605 c-24 -6 -23 -19 3 -26 28 -7
21 -41 -9 -45 -20 -3 -22 1 -22 37 0 36 3 41 23 40 16 -1 18 -2 5 -6z m349
-55 c-2 -13 -4 -3 -4 22 0 25 2 35 4 23 2 -13 2 -33 0 -45z m217 13 c1 -16 -2
-27 -5 -25 -9 5 -17 52 -11 59 9 9 15 -4 16 -34z m-457 -7 c1 -25 0 -26 -4 -4
-3 14 -10 29 -17 33 -7 6 -6 7 4 4 8 -2 16 -16 17 -33z m123 28 c0 -4 -9 -8
-19 -8 -11 0 -17 4 -15 8 3 4 12 8 20 8 8 0 14 -4 14 -8z m297 -39 c-3 -10 -5
-2 -5 17 0 19 2 27 5 18 2 -10 2 -26 0 -35z m-390 0 c-3 -10 -5 -4 -5 12 0 17
2 24 5 18 2 -7 2 -21 0 -30z m290 0 c-3 -10 -5 -4 -5 12 0 17 2 24 5 18 2 -7
2 -21 0 -30z m-343 1 c3 -8 2 -12 -4 -9 -6 3 -10 10 -10 16 0 14 7 11 14 -7z
m524 -9 c-3 -3 -9 2 -12 12 -6 14 -5 15 5 6 7 -7 10 -15 7 -18z m-423 -525 c5
-8 11 -7 21 1 12 10 13 9 8 -5 -8 -20 -28 -21 -44 -1 -8 9 -9 15 -2 15 6 0 14
-5 17 -10z m-145 -10 c0 -5 -4 -10 -10 -10 -5 0 -10 5 -10 10 0 6 5 10 10 10
6 0 10 -4 10 -10z m40 0 c0 -5 -4 -10 -10 -10 -5 0 -10 5 -10 10 0 6 5 10 10
10 6 0 10 -4 10 -10z m-138 -14 c19 6 21 4 11 -7 -9 -11 -8 -20 2 -39 44 -79
-34 -167 -82 -94 -15 24 -15 29 -2 53 11 18 23 26 42 26 19 -1 26 3 22 13 -3
7 -5 16 -5 18 0 2 -12 2 -27 -2 -18 -4 -24 -2 -15 3 8 6 10 17 5 29 -6 17 -5
17 10 6 10 -9 25 -11 39 -6z m85 -36 c9 -16 20 -30 23 -30 3 0 14 14 23 30 10
17 22 30 28 30 14 0 11 -8 -16 -48 -16 -23 -25 -51 -25 -74 0 -21 -4 -38 -10
-38 -5 0 -10 17 -10 38 0 23 -9 51 -25 74 -27 40 -30 48 -16 48 6 0 18 -13 28
-30z m233 24 c0 -3 -23 -33 -50 -67 l-50 -62 50 -3 c73 -4 61 -22 -15 -22 -39
0 -65 4 -65 11 0 6 21 36 46 67 l47 57 -47 3 c-70 5 -55 22 19 22 36 0 65 -3
65 -6z m119 -96 c-1 -30 -2 -31 -8 -8 -6 21 -15 26 -51 31 l-45 6 53 1 52 2
-1 -32z m-34 -269 c-4 -5 -13 -9 -22 -9 -13 0 -13 3 -3 15 13 15 35 11 25 -6z
m121 -6 c-7 -7 -26 7 -26 19 0 6 6 6 15 -2 9 -7 13 -15 11 -17z m259 8 c-3 -6
-11 -11 -17 -11 -6 0 -6 6 2 15 14 17 26 13 15 -4z m171 -8 c-7 -7 -26 7 -26
19 0 6 6 6 15 -2 9 -7 13 -15 11 -17z m194 0 c0 -13 -3 -13 -15 -3 -8 7 -12
16 -9 21 8 13 24 1 24 -18z m206 0 c-7 -7 -26 7 -26 19 0 6 6 6 15 -2 9 -7 13
-15 11 -17z m67 4 c4 3 7 1 7 -6 0 -17 -32 -10 -38 9 -4 12 -3 13 10 3 8 -7
18 -10 21 -6z m-1313 -7 c0 -5 -4 -10 -10 -10 -5 0 -10 5 -10 10 0 6 5 10 10
10 6 0 10 -4 10 -10z m35 0 c3 -5 1 -10 -4 -10 -6 0 -11 5 -11 10 0 6 2 10 4
10 3 0 8 -4 11 -10z m107 -7 c22 -20 23 -51 1 -75 -32 -35 -85 -12 -85 37 0
48 48 70 84 38z m246 0 c5 -17 -26 -29 -40 -15 -6 6 -7 15 -3 22 9 14 37 9 43
-7z m236 5 c-6 -9 -44 -6 -44 3 0 4 11 6 24 5 13 0 22 -4 20 -8z m748 -14 c-3
-15 -8 -22 -14 -16 -9 9 -1 42 12 42 4 0 5 -12 2 -26z m-1498 -31 c17 -48 14
-65 -6 -45 -16 16 -45 15 -51 0 -2 -7 -7 -10 -11 -7 -10 9 25 99 39 99 7 0 20
-21 29 -47z m46 -3 c0 -27 -4 -50 -10 -50 -5 0 -10 23 -10 50 0 28 5 50 10 50
6 0 10 -22 10 -50z m320 40 c0 -5 -8 -10 -17 -11 -15 0 -15 -2 2 -9 18 -8 18
-9 -5 -10 -23 -1 -23 -2 -5 -10 18 -8 18 -9 2 -9 -25 -1 -11 -21 14 -21 11 0
17 -4 14 -10 -9 -15 -41 -12 -55 5 -18 22 -19 48 -2 68 16 18 52 23 52 7z
m230 -22 c0 -36 -4 -35 -14 5 -4 16 -2 27 4 27 5 0 10 -14 10 -32z m33 -17
c-15 -28 -29 -48 -31 -47 -5 6 42 96 51 96 4 0 -4 -22 -20 -49z m-465 7 c2
-13 -3 -18 -17 -18 -12 0 -21 -4 -21 -10 0 -5 9 -10 21 -10 11 0 17 -4 14 -10
-11 -17 -44 -11 -55 10 -15 28 4 62 33 58 12 -2 23 -11 25 -20z m242 -18 c0
-22 -4 -40 -10 -40 -5 0 -10 18 -10 40 0 22 5 40 10 40 6 0 10 -18 10 -40z
m140 0 c0 -22 -4 -40 -10 -40 -5 0 -10 18 -10 40 0 22 5 40 10 40 6 0 10 -18
10 -40z m250 0 c0 -22 -4 -40 -10 -40 -5 0 -10 18 -10 40 0 22 5 40 10 40 6 0
10 -18 10 -40z m180 0 c0 -22 -4 -40 -10 -40 -5 0 -10 18 -10 40 0 22 5 40 10
40 6 0 10 -18 10 -40z m200 0 c0 -22 -4 -40 -10 -40 -5 0 -10 18 -10 40 0 22
5 40 10 40 6 0 10 -18 10 -40z m158 17 c2 -12 -3 -17 -17 -17 -12 0 -21 -4
-21 -10 0 -5 9 -10 21 -10 11 0 18 -4 15 -8 -3 -5 -26 -9 -51 -10 -52 0 -74
22 -55 58 14 26 103 25 108 -3z m42 -17 c0 -22 -4 -40 -10 -40 -5 0 -10 18
-10 40 0 22 5 40 10 40 6 0 10 -18 10 -40z m90 33 c0 -4 -10 -17 -22 -30 l-21
-23 21 0 c12 0 22 -4 22 -10 0 -5 -16 -10 -35 -10 -39 0 -42 6 -19 38 14 20
14 22 0 22 -9 0 -16 5 -16 10 0 6 16 10 35 10 19 0 35 -3 35 -7z m-1015 -33
c0 -25 -2 -27 -14 -15 -12 11 -12 17 -1 29 16 20 15 21 15 -14z m230 10 c4 -6
2 -17 -5 -24 -8 -11 -8 -15 2 -19 7 -3 2 -6 -11 -6 -20 -1 -22 2 -13 11 14 14
16 42 2 33 -5 -3 -10 -1 -10 4 0 14 27 14 35 1z m155 0 c0 -5 -4 -10 -10 -10
-5 0 -10 5 -10 10 0 6 5 10 10 10 6 0 10 -4 10 -10z m50 0 c0 -5 -4 -10 -10
-10 -5 0 -10 5 -10 10 0 6 5 10 10 10 6 0 10 -4 10 -10z m50 0 c0 -5 -4 -10
-10 -10 -5 0 -10 5 -10 10 0 6 5 10 10 10 6 0 10 -4 10 -10z m106 -79 c-12
-19 -24 -12 -19 10 4 13 9 17 15 11 6 -6 7 -15 4 -21z m-819 -653 c-3 -7 -5
-2 -5 12 0 14 2 19 5 13 2 -7 2 -19 0 -25z m130 -20 c-3 -7 -5 -2 -5 12 0 14
2 19 5 13 2 -7 2 -19 0 -25z m-237 -538 c0 -5 -4 -10 -10 -10 -5 0 -10 5 -10
10 0 6 5 10 10 10 6 0 10 -4 10 -10z m40 0 c0 -5 -4 -10 -10 -10 -5 0 -10 5
-10 10 0 6 5 10 10 10 6 0 10 -4 10 -10z m-138 -14 c19 6 21 4 11 -7 -9 -11
-8 -20 2 -39 44 -79 -34 -167 -82 -94 -15 24 -15 29 -2 53 11 18 23 26 42 26
19 -1 26 3 22 13 -3 7 -5 16 -5 18 0 2 -12 2 -27 -2 -18 -4 -24 -2 -15 3 8 6
10 17 5 29 -6 17 -5 17 10 6 10 -9 25 -11 39 -6z m85 -36 c9 -16 20 -30 23
-30 3 0 14 14 23 30 10 17 22 30 28 30 14 0 11 -8 -16 -48 -16 -23 -25 -51
-25 -74 0 -21 -4 -38 -10 -38 -5 0 -10 17 -10 38 0 23 -9 51 -25 74 -27 40
-30 48 -16 48 6 0 18 -13 28 -30z m131 -50 c-10 -16 -10 -24 0 -40 7 -12 8
-20 2 -20 -6 0 -15 11 -22 25 -8 19 -8 28 2 40 18 22 32 18 18 -5z m37 0 c-17
-19 -17 -21 0 -40 19 -21 7 -28 -13 -8 -15 15 -15 41 0 56 20 20 32 13 13 -8z
m-149 -298 c-9 -9 -37 8 -31 18 5 8 11 7 21 -1 8 -6 12 -14 10 -17z m750 1
c-7 -7 -26 7 -26 19 0 6 6 6 15 -2 9 -7 13 -15 11 -17z m279 8 c-3 -6 -11 -11
-17 -11 -6 0 -6 6 2 15 14 17 26 13 15 -4z m200 0 c-3 -6 -11 -11 -17 -11 -6
0 -6 6 2 15 14 17 26 13 15 -4z m65 15 c0 -11 -19 -15 -25 -6 -3 5 1 10 9 10
9 0 16 -2 16 -4z m-930 -21 c-7 -9 -15 -13 -17 -11 -7 7 7 26 19 26 6 0 6 -6
-2 -15z m1010 -15 c0 -16 -4 -30 -9 -30 -10 0 -21 47 -13 55 13 13 22 3 22
-25z m77 14 c2 -5 -8 -10 -22 -10 -21 -2 -24 1 -14 12 13 15 31 14 36 -2z
m-1277 -4 c0 -5 -4 -10 -10 -10 -5 0 -10 5 -10 10 0 6 5 10 10 10 6 0 10 -4
10 -10z m35 0 c3 -5 1 -10 -4 -10 -6 0 -11 5 -11 10 0 6 2 10 4 10 3 0 8 -4
11 -10z m285 0 c0 -5 -4 -10 -10 -10 -5 0 -10 5 -10 10 0 6 5 10 10 10 6 0 10
-4 10 -10z m105 0 c-4 -6 -10 -8 -15 -5 -5 3 -11 1 -15 -5 -3 -5 -2 -10 4 -10
22 0 39 -30 32 -57 -6 -22 -14 -28 -37 -30 -20 -1 -22 0 -6 4 27 6 29 20 2 28
-20 6 -24 16 -21 45 4 32 11 40 36 40 15 0 24 -4 20 -10z m95 -4 c-7 -7 -14
-6 -21 1 -9 9 -7 12 9 10 14 -1 18 -5 12 -11z m394 2 c-2 -3 -13 -6 -24 -5
-24 2 -18 13 9 13 11 0 18 -4 15 -8z m434 -5 c5 -17 -26 -29 -40 -15 -6 6 -7
15 -3 22 9 14 37 9 43 -7z m-1644 -40 c17 -48 14 -65 -6 -45 -16 16 -45 15
-51 0 -2 -7 -7 -10 -11 -7 -10 9 25 99 39 99 7 0 20 -21 29 -47z m46 -3 c0
-27 -4 -50 -10 -50 -5 0 -10 23 -10 50 0 28 5 50 10 50 6 0 10 -22 10 -50z
m938 -12 l-1 -63 -7 60 -7 60 -3 -60 c-2 -34 -5 -48 -7 -32 -3 16 -11 31 -19
34 -17 6 -19 49 -1 56 40 17 47 9 45 -55z m452 53 c0 -5 -12 -11 -27 -13 l-28
-4 27 -11 c34 -15 43 -30 27 -49 -14 -17 -60 -15 -66 2 -2 7 6 10 22 7 32 -7
33 13 0 21 -24 6 -34 34 -18 49 10 11 63 8 63 -2z m-1180 -38 c0 -37 -1 -38
-34 -38 -32 0 -34 2 -33 30 2 25 7 31 32 36 17 4 31 7 33 8 1 0 2 -16 2 -36z
m850 0 c0 -37 -1 -38 -34 -38 -32 0 -34 2 -33 30 2 25 7 31 32 36 17 4 31 7
33 8 1 0 2 -16 2 -36z m-980 -13 c0 -22 -4 -40 -10 -40 -5 0 -10 18 -10 40 0
22 5 40 10 40 6 0 10 -18 10 -40z m208 18 c2 -13 -3 -18 -17 -18 -12 0 -21 -4
-21 -10 0 -5 9 -10 21 -10 11 0 17 -4 14 -10 -11 -17 -44 -11 -55 10 -15 28 4
62 33 58 12 -2 23 -11 25 -20z m282 2 c9 -18 8 -20 -15 -20 -14 0 -25 -4 -25
-10 0 -5 9 -10 20 -10 11 0 20 -4 20 -10 0 -11 -20 -13 -44 -4 -19 7 -22 60
-3 67 24 10 36 7 47 -13z m220 8 c0 -6 -7 -20 -17 -30 -15 -17 -15 -18 0 -18
10 0 17 -4 17 -10 0 -5 -13 -10 -30 -10 -34 0 -38 14 -13 42 15 17 15 18 0 18
-10 0 -17 5 -17 10 0 6 14 10 30 10 17 0 30 -5 30 -12z m40 -28 c0 -22 -4 -40
-10 -40 -5 0 -10 18 -10 40 0 22 5 40 10 40 6 0 10 -18 10 -40z m270 0 c0 -22
-4 -40 -10 -40 -5 0 -10 18 -10 40 0 22 5 40 10 40 6 0 10 -18 10 -40z m200 0
c0 -22 -4 -40 -10 -40 -5 0 -10 18 -10 40 0 22 5 40 10 40 6 0 10 -18 10 -40z
m238 18 c2 -13 -3 -18 -17 -18 -12 0 -21 -4 -21 -10 0 -5 9 -10 21 -10 11 0
17 -4 14 -10 -11 -17 -44 -11 -55 10 -15 28 4 62 33 58 12 -2 23 -11 25 -20z
m-1421 -18 c0 -16 -4 -27 -9 -24 -10 6 -11 38 -1 47 9 10 10 10 10 -23z m252
-2 c-1 -16 -3 -18 -6 -6 -2 10 -17 18 -36 21 -31 4 -31 4 6 5 33 2 37 -1 36
-20z m856 2 c0 -8 -8 -16 -17 -18 -13 -2 -18 3 -18 18 0 15 5 20 18 18 9 -2
17 -10 17 -18z m425 6 c0 -8 -5 -18 -11 -22 -14 -8 -33 11 -25 25 10 16 36 13
36 -3z m-1622 -683 c-21 -5 -24 -23 -5 -24 10 0 10 -2 0 -6 -19 -7 -16 -31 5
-36 13 -4 11 -5 -5 -6 -20 -1 -23 4 -23 39 0 35 3 40 23 39 16 -1 18 -2 5 -6z
m72 -33 c0 -33 -4 -40 -19 -40 -30 0 -35 31 -9 56 13 13 24 23 26 23 1 1 2
-17 2 -39z m204 -10 c1 -16 -2 -30 -5 -30 -8 0 -17 58 -11 65 9 9 15 -4 16
-35z m-164 -20 c5 0 11 12 13 28 4 25 4 24 6 -6 1 -27 -2 -33 -16 -30 -11 2
-18 13 -19 28 -1 22 0 22 3 3 2 -13 8 -23 13 -23z m70 46 c0 -2 -7 -7 -16 -10
-8 -3 -12 -2 -9 4 6 10 25 14 25 6z m58 -32 c4 -32 -4 -31 -10 1 -1 11 -7 24
-13 28 -6 5 -4 7 5 4 8 -2 17 -17 18 -33z m120 24 c7 -7 12 -17 12 -22 0 -6
-5 -3 -11 7 -5 9 -14 17 -19 17 -15 0 -12 -38 3 -43 9 -4 9 -6 -1 -6 -16 -1
-26 24 -18 44 7 18 18 19 34 3z m29 -35 c-3 -10 -5 -2 -5 17 0 19 2 27 5 18 2
-10 2 -26 0 -35z m-212 -11 c-3 -3 -11 0 -18 7 -9 10 -8 11 6 5 10 -3 15 -9
12 -12z m-135 -532 c0 -5 -4 -10 -10 -10 -5 0 -10 5 -10 10 0 6 5 10 10 10 6
0 10 -4 10 -10z m40 0 c0 -5 -4 -10 -10 -10 -5 0 -10 5 -10 10 0 6 5 10 10 10
6 0 10 -4 10 -10z m-138 -14 c19 6 21 4 11 -7 -9 -11 -8 -20 2 -39 44 -79 -34
-167 -82 -94 -15 24 -15 29 -2 53 11 18 23 26 42 26 19 -1 26 3 22 13 -3 7 -5
16 -5 18 0 2 -12 2 -27 -2 -18 -4 -24 -2 -15 3 8 6 10 17 5 29 -6 17 -5 17 10
6 10 -9 25 -11 39 -6z m218 -20 c0 -14 -4 -27 -8 -30 -5 -3 -9 8 -9 24 0 17 4
30 9 30 4 0 8 -11 8 -24z m-133 -16 c9 -16 20 -30 23 -30 3 0 14 14 23 30 10
17 22 30 28 30 14 0 11 -8 -16 -48 -16 -23 -25 -51 -25 -74 0 -21 -4 -38 -10
-38 -5 0 -10 17 -10 38 0 23 -9 51 -25 74 -27 40 -30 48 -16 48 6 0 18 -13 28
-30z m195 -25 c0 -5 -5 -11 -11 -13 -6 -2 -11 4 -11 13 0 9 5 15 11 13 6 -2
11 -8 11 -13z m-2 -90 c0 -30 -4 -55 -10 -55 -11 0 -13 52 -4 88 10 36 14 26
14 -33z m-174 -233 c-9 -9 -37 8 -31 18 5 8 11 7 21 -1 8 -6 12 -14 10 -17z
m599 9 c-3 -6 -11 -11 -17 -11 -6 0 -6 6 2 15 14 17 26 13 15 -4z m201 -8 c-7
-7 -26 7 -26 19 0 6 6 6 15 -2 9 -7 13 -15 11 -17z m294 0 c0 -13 -3 -13 -15
-3 -8 7 -12 16 -9 21 8 13 24 1 24 -18z m206 0 c-7 -7 -26 7 -26 19 0 6 6 6
15 -2 9 -7 13 -15 11 -17z m219 8 c-3 -6 -11 -11 -17 -11 -6 0 -6 6 2 15 14
17 26 13 15 -4z m-1015 -6 c-7 -9 -15 -13 -17 -11 -7 7 7 26 19 26 6 0 6 -6
-2 -15z m-190 -5 c0 -5 -4 -10 -10 -10 -5 0 -10 5 -10 10 0 6 5 10 10 10 6 0
10 -4 10 -10z m340 -4 c-7 -7 -14 -6 -21 1 -9 9 -7 12 9 10 14 -1 18 -5 12
-11z m70 4 c0 -5 -4 -10 -10 -10 -5 0 -10 5 -10 10 0 6 5 10 10 10 6 0 10 -4
10 -10z m260 0 c0 -5 -4 -10 -10 -10 -5 0 -10 5 -10 10 0 6 5 10 10 10 6 0 10
-4 10 -10z m240 0 c0 -5 -4 -10 -10 -10 -5 0 -10 5 -10 10 0 6 5 10 10 10 6 0
10 -4 10 -10z m30 0 c0 -5 -4 -10 -10 -10 -5 0 -10 5 -10 10 0 6 5 10 10 10 6
0 10 -4 10 -10z m-1376 -47 c17 -48 14 -65 -6 -45 -16 16 -45 15 -51 0 -2 -7
-7 -10 -11 -7 -10 9 25 99 39 99 7 0 20 -21 29 -47z m46 -3 c0 -27 -4 -50 -10
-50 -5 0 -10 23 -10 50 0 28 5 50 10 50 6 0 10 -22 10 -50z m1720 40 c0 -5 -9
-10 -20 -10 -11 0 -20 -4 -20 -10 0 -5 9 -10 20 -10 11 0 20 -4 20 -10 0 -5
-9 -10 -20 -10 -11 0 -20 -4 -20 -10 0 -5 9 -10 19 -10 11 0 23 -4 26 -10 9
-15 -88 -13 -103 2 -7 7 -12 24 -12 38 0 14 5 31 12 38 14 14 98 16 98 2z
m-173 -43 c0 -30 -2 -32 -33 -32 -32 0 -34 2 -34 35 0 35 1 36 33 32 29 -3 33
-7 34 -35z m-1467 -7 c0 -22 -4 -40 -10 -40 -5 0 -10 18 -10 40 0 22 5 40 10
40 6 0 10 -18 10 -40z m348 18 c2 -12 -5 -18 -25 -21 -27 -4 -27 -5 -5 -12 26
-9 29 -25 4 -25 -37 0 -55 43 -30 68 17 17 52 11 56 -10z m242 -18 c0 -22 -4
-40 -10 -40 -5 0 -10 18 -10 40 0 22 5 40 10 40 6 0 10 -18 10 -40z m80 30 c0
-5 -10 -10 -22 -11 -15 0 -18 -2 -8 -6 8 -3 21 -10 28 -16 17 -14 -4 -37 -34
-37 -30 0 -32 20 -1 21 l22 0 -22 9 c-22 9 -30 30 -16 43 10 11 53 8 53 -3z
m130 -30 c0 -22 -4 -40 -10 -40 -5 0 -10 18 -10 40 0 22 5 40 10 40 6 0 10
-18 10 -40z m138 18 c2 -13 -3 -18 -17 -18 -12 0 -21 -4 -21 -10 0 -5 7 -10
15 -10 8 0 15 -4 15 -9 0 -13 -81 -11 -97 2 -16 12 -17 39 -2 54 6 6 32 10 57
9 36 -1 48 -5 50 -18z m162 -18 c0 -22 -4 -40 -10 -40 -5 0 -10 18 -10 40 0
22 5 40 10 40 6 0 10 -18 10 -40z m200 0 c0 -22 -4 -40 -10 -40 -5 0 -10 18
-10 40 0 22 5 40 10 40 6 0 10 -18 10 -40z m210 0 c0 -22 -4 -40 -10 -40 -5 0
-10 18 -10 40 0 22 5 40 10 40 6 0 10 -18 10 -40z m-371 -15 c-14 -14 -16 -13
-16 15 0 28 2 29 16 15 14 -13 14 -17 0 -30z m31 15 c0 -10 -4 -21 -8 -24 -5
-3 -9 8 -9 24 0 16 4 27 9 24 4 -3 8 -14 8 -24z m-1000 10 c0 -5 -4 -10 -10
-10 -5 0 -10 5 -10 10 0 6 5 10 10 10 6 0 10 -4 10 -10z m50 6 c0 -11 -19 -15
-25 -6 -3 5 1 10 9 10 9 0 16 -2 16 -4z m40 -6 c0 -5 -4 -10 -10 -10 -5 0 -10
5 -10 10 0 6 5 10 10 10 6 0 10 -4 10 -10z m169 -12 c-1 -16 -3 -18 -6 -6 -2
10 -17 18 -36 21 -31 4 -31 4 6 5 33 2 37 -1 36 -20z m1261 12 c0 -5 -4 -10
-10 -10 -5 0 -10 5 -10 10 0 6 5 10 10 10 6 0 10 -4 10 -10z m50 6 c0 -11 -19
-15 -25 -6 -3 5 1 10 9 10 9 0 16 -2 16 -4z m40 -6 c0 -5 -4 -10 -10 -10 -5 0
-10 5 -10 10 0 6 5 10 10 10 6 0 10 -4 10 -10z m-1672 -7 c-15 -2 -42 -2 -60
0 -18 2 -6 4 27 4 33 0 48 -2 33 -4z m1242 -37 c0 -23 -16 -27 -17 -5 -1 10 2
19 8 19 5 0 9 -6 9 -14z m30 -5 c0 -11 -4 -22 -9 -25 -5 -3 -8 6 -8 19 0 14 3
25 8 25 5 0 9 -9 9 -19z m-1163 -683 c-2 -13 -4 -5 -4 17 -1 22 1 32 4 23 2
-10 2 -28 0 -40z m35 8 c2 -19 0 -32 -4 -30 -8 5 -12 64 -4 64 2 0 6 -15 8
-34z m-205 -23 c-3 -10 -5 -4 -5 12 0 17 2 24 5 18 2 -7 2 -21 0 -30z m318
-1161 c-8 -8 -25 10 -19 20 4 6 9 5 15 -3 4 -7 6 -15 4 -17z m132 2 c-9 -9
-28 6 -21 18 4 6 10 6 17 -1 6 -6 8 -13 4 -17z m288 -2 c-8 -8 -25 10 -19 20
4 6 9 5 15 -3 4 -7 6 -15 4 -17z m126 -5 c-8 -8 -11 -7 -11 4 0 20 13 34 18
19 3 -7 -1 -17 -7 -23z m85 6 c-7 -7 -26 7 -26 19 0 6 6 6 15 -2 9 -7 13 -15
11 -17z m170 0 c-7 -7 -26 7 -26 19 0 6 6 6 15 -2 9 -7 13 -15 11 -17z m339
-1 c-8 -8 -25 10 -19 20 4 6 9 5 15 -3 4 -7 6 -15 4 -17z m-1738 -4 c29 -27
29 -65 1 -95 -27 -29 -65 -29 -95 -1 -29 27 -29 65 -1 95 27 29 65 29 95 1z
m309 -38 c-1 -52 -2 -55 -26 -55 -20 0 -26 6 -28 28 -3 22 1 30 17 34 11 3 18
9 15 14 -3 5 -9 7 -13 5 -4 -3 -7 3 -8 12 -1 11 6 17 21 17 21 0 23 -4 22 -55z
m770 27 c1 -21 -4 -27 -19 -27 -19 0 -20 1 -2 20 16 18 14 25 -8 21 -5 -1 -5
3 -2 9 12 19 30 5 31 -23z m521 17 c2 -5 -6 -10 -17 -10 -20 0 -25 7 -13 20 9
8 26 3 30 -10z m-1107 -9 c0 -8 6 -15 13 -16 10 0 10 -2 0 -6 -7 -2 -13 -20
-13 -39 0 -19 -4 -34 -10 -34 -5 0 -10 16 -10 35 0 21 -5 35 -12 36 -10 0 -10
2 0 6 6 2 12 11 12 19 0 8 5 14 10 14 6 0 10 -7 10 -15z m206 -6 c10 -17 -13
-36 -27 -22 -12 12 -4 33 11 33 5 0 12 -5 16 -11z m594 -3 c-7 -7 -13 -7 -20
0 -6 6 -3 10 10 10 13 0 16 -4 10 -10z m70 -6 c0 -11 -6 -20 -14 -20 -18 0
-29 16 -21 30 11 18 35 11 35 -10z m100 12 c0 -4 -9 -8 -19 -8 -11 0 -17 4
-15 8 3 4 12 8 20 8 8 0 14 -4 14 -8z m64 -4 c-3 -4 -11 -5 -19 -1 -21 7 -19
12 4 10 11 0 18 -5 15 -9z m132 1 c10 -17 -13 -36 -27 -22 -12 12 -4 33 11 33
5 0 12 -5 16 -11z m-1298 -15 c8 -14 10 -14 21 0 21 26 35 18 17 -9 -9 -13
-16 -33 -16 -45 0 -11 -7 -20 -15 -20 -9 0 -15 9 -15 23 0 12 -7 33 -16 45
-13 19 -13 22 0 22 8 0 19 -7 24 -16z m239 -56 c-2 -13 -4 -3 -4 22 0 25 2 35
4 23 2 -13 2 -33 0 -45z m143 22 c0 -22 -4 -40 -10 -40 -5 0 -10 18 -10 40 0
22 5 40 10 40 6 0 10 -18 10 -40z m277 -22 c-2 -13 -4 -3 -4 22 0 25 2 35 4
23 2 -13 2 -33 0 -45z m213 22 c0 -22 -4 -40 -10 -40 -5 0 -10 18 -10 40 0 22
5 40 10 40 6 0 10 -18 10 -40z m170 0 c0 -22 -4 -40 -10 -40 -5 0 -10 18 -10
40 0 22 5 40 10 40 6 0 10 -18 10 -40z m208 18 c2 -13 -3 -18 -17 -18 -12 0
-21 -4 -21 -10 0 -5 7 -10 15 -10 8 0 15 -5 15 -11 0 -6 -10 -9 -22 -7 -24 3
-35 35 -24 64 8 21 50 14 54 -8z m129 -40 c-2 -13 -4 -3 -4 22 0 25 2 35 4 23
2 -13 2 -33 0 -45z m-431 40 c5 -8 0 -9 -14 -6 -12 4 -22 2 -22 -3 0 -5 9 -9
21 -9 32 0 20 -34 -14 -38 -16 -2 -27 2 -27 8 0 7 7 10 15 7 8 -4 17 -2 20 3
4 6 -3 10 -14 10 -20 0 -28 19 -14 33 10 11 41 8 49 -5z m-406 -2 c0 -3 -4 -8
-10 -11 -5 -3 -10 -1 -10 4 0 6 5 11 10 11 6 0 10 -2 10 -4z m40 -6 c0 -5 -4
-10 -10 -10 -5 0 -10 5 -10 10 0 6 5 10 10 10 6 0 10 -4 10 -10z m40 0 c0 -5
-2 -10 -4 -10 -3 0 -8 5 -11 10 -3 6 -1 10 4 10 6 0 11 -4 11 -10z m730 -4 c0
-8 -5 -18 -11 -22 -14 -8 -33 11 -25 25 10 16 36 13 36 -3z m160 -8 c0 -19 -1
-20 -12 -6 -7 9 -24 19 -38 21 -18 3 -14 5 13 6 32 1 37 -2 37 -21z m-1032 5
c-15 -2 -42 -2 -60 0 -18 2 -6 4 27 4 33 0 48 -2 33 -4z m-192 -34 c3 -6 2
-15 -4 -21 -6 -6 -11 -2 -15 11 -5 22 7 29 19 10z m1144 -3 c0 -23 -16 -27
-17 -5 -1 10 2 19 8 19 5 0 9 -6 9 -14z m-1406 -365 c4 -5 -3 -7 -14 -4 -11 3
-20 1 -20 -5 0 -5 9 -12 21 -15 28 -7 21 -41 -9 -45 -20 -3 -22 1 -22 37 0 34
3 41 19 41 11 0 22 -4 25 -9z m193 -53 c-2 -13 -4 -3 -4 22 0 25 2 35 4 23 2
-13 2 -33 0 -45z m503 54 c0 -4 -5 -13 -12 -20 -6 -6 -8 -15 -4 -19 4 -4 11
-2 15 6 6 9 10 6 14 -10 4 -13 4 -25 2 -28 -3 -2 -5 1 -5 7 0 7 -9 12 -20 12
-22 0 -23 3 -14 38 6 21 24 32 24 14z m250 -32 c0 -33 -4 -40 -19 -40 -21 0
-33 22 -25 45 4 8 12 15 20 15 8 0 14 5 14 10 0 6 2 10 5 10 3 0 5 -18 5 -40z
m-806 -10 c1 -16 -2 -30 -5 -30 -8 0 -17 58 -11 65 9 9 15 -4 16 -35z m198 22
c-15 -5 -16 -38 -2 -45 6 -3 5 -4 -2 -3 -7 1 -14 17 -16 34 -3 27 -1 31 14 25
11 -4 13 -8 6 -11z m190 0 c-15 -5 -16 -38 -2 -45 6 -3 5 -4 -2 -3 -7 1 -14
17 -16 34 -3 27 -1 31 14 25 11 -4 13 -8 6 -11z m-487 0 l-20 -5 20 -8 c17 -6
17 -8 3 -8 -10 -1 -18 -5 -18 -10 0 -5 8 -12 18 -14 16 -4 16 -5 -1 -6 -10 0
-20 6 -23 14 -9 23 3 45 23 44 15 -1 15 -2 -2 -7z m59 1 c-5 -5 -12 -12 -16
-18 -4 -6 -8 -2 -8 8 0 9 7 17 17 17 9 0 12 -3 7 -7z m152 -26 c1 -26 1 -26
-3 -2 -5 31 -25 28 -34 -6 -6 -22 -7 -21 -8 7 -1 26 3 31 22 30 17 -1 22 -7
23 -29z m35 24 c-11 -7 -10 -11 4 -19 18 -10 13 -32 -8 -32 -8 0 -8 3 1 9 10
6 10 10 -2 21 -17 13 -13 30 7 30 8 0 7 -3 -2 -9z m93 1 c-7 -4 -14 -18 -17
-32 -4 -21 -4 -20 -6 8 -1 24 3 32 17 32 11 0 13 -3 6 -8z m36 -42 c5 0 11 12
13 28 4 25 4 25 6 -5 1 -27 -3 -33 -19 -33 -16 0 -20 6 -19 33 2 30 2 30 6 5
2 -16 8 -28 13 -28z m63 43 c-7 -2 -13 -13 -13 -23 0 -10 6 -21 13 -23 9 -4 9
-6 -1 -6 -7 -1 -15 6 -18 14 -8 20 2 45 18 44 10 0 10 -2 1 -6z m101 -1 c2 -4
-4 -8 -14 -8 -10 0 -16 4 -14 8 3 4 9 8 14 8 5 0 11 -4 14 -8z m50 0 c-7 -4
-14 -18 -17 -32 -4 -21 -4 -20 -6 8 -1 24 3 32 17 32 11 0 13 -3 6 -8z m120
-14 c4 13 10 21 12 19 3 -2 -1 -16 -7 -31 -14 -29 -29 -18 -28 19 1 16 2 15 8
-5 l7 -25 8 23z m94 -11 c3 -22 -1 -27 -17 -27 -14 0 -21 6 -20 18 0 10 3 12
6 5 2 -7 9 -13 14 -13 12 0 8 32 -6 43 -6 5 -4 7 5 4 8 -2 16 -16 18 -30z m33
1 c-3 -21 -6 -26 -9 -15 -3 17 3 47 11 47 2 0 1 -15 -2 -32z m-771 -13 c0 -8
-7 -15 -15 -15 -13 0 -14 3 -3 15 16 18 18 18 18 0z m680 0 c0 -8 -4 -15 -10
-15 -5 0 -10 7 -10 15 0 8 5 15 10 15 6 0 10 -7 10 -15z m-210 -9 c-7 -7 -13
-7 -20 0 -6 6 -3 10 10 10 13 0 16 -4 10 -10z m545 -405 c-3 -6 -11 -11 -17
-11 -6 0 -6 6 2 15 14 17 26 13 15 -4z m430 -9 c-8 -8 -25 10 -19 20 4 6 9 5
15 -3 4 -7 6 -15 4 -17z m141 1 c-7 -7 -26 7 -26 19 0 6 6 6 15 -2 9 -7 13
-15 11 -17z m550 0 c-7 -7 -26 7 -26 19 0 6 6 6 15 -2 9 -7 13 -15 11 -17z
m-2631 -8 c14 -13 25 -33 25 -45 0 -27 -43 -70 -70 -70 -27 0 -70 43 -70 70 0
27 43 70 70 70 12 0 32 -11 45 -25z m311 -35 c-1 -52 -2 -55 -26 -55 -20 0
-26 6 -28 28 -3 22 1 30 17 34 11 3 18 9 15 14 -3 5 -9 7 -13 5 -4 -3 -7 3 -8
12 -1 11 6 17 21 17 21 0 23 -4 22 -55z m771 44 c2 -5 -6 -10 -17 -10 -20 0
-25 7 -13 20 9 8 26 3 30 -10z m690 1 c2 -5 -8 -10 -21 -10 -15 0 -22 5 -18
13 5 15 34 12 39 -3z m716 3 c3 -8 -4 -13 -19 -13 -24 0 -30 6 -17 18 11 11
30 8 36 -5z m-2006 -4 c-3 -3 -12 -4 -19 -1 -8 3 -5 6 6 6 11 1 17 -2 13 -5z
m838 -4 c3 -5 1 -10 -4 -10 -6 0 -11 5 -11 10 0 6 2 10 4 10 3 0 8 -4 11 -10z
m225 -9 c0 -29 -15 -33 -16 -5 -1 13 2 24 7 24 5 0 9 -9 9 -19z m29 -17 c-14
-13 -15 -13 -13 8 1 13 3 25 3 28 1 2 6 -1 13 -8 10 -9 9 -16 -3 -28z m686 26
c3 -5 1 -10 -4 -10 -6 0 -11 5 -11 10 0 6 2 10 4 10 3 0 8 -4 11 -10z m-1447
-27 c2 -16 -4 -26 -22 -35 -14 -6 -26 -17 -26 -25 0 -7 -4 -13 -10 -13 -5 0
-10 23 -10 51 l0 50 33 -3 c24 -2 33 -8 35 -25z m82 17 c0 -5 -4 -10 -10 -10
-5 0 -10 -18 -10 -40 0 -22 -4 -40 -10 -40 -5 0 -10 18 -10 40 0 29 -4 40 -15
40 -8 0 -15 5 -15 10 0 6 16 10 35 10 19 0 35 -4 35 -10z m85 0 c3 -6 -5 -10
-18 -10 -26 0 -40 -20 -31 -45 9 -24 37 -19 29 5 -5 14 -2 20 10 20 23 0 16
-54 -8 -58 -39 -8 -65 56 -35 86 15 15 45 16 53 2z m409 -2 c-3 -4 -12 -8 -20
-8 -8 0 -14 4 -14 8 0 4 9 8 19 8 11 0 17 -4 15 -8z m70 0 c-3 -4 -11 -5 -19
-1 -21 7 -19 12 4 10 11 0 18 -5 15 -9z m166 -18 c0 -16 -4 -30 -10 -30 -5 0
-10 6 -10 14 0 8 -3 21 -6 30 -4 11 -1 16 10 16 11 0 16 -9 16 -30z m25 -20
c-14 -27 -28 -50 -30 -50 -3 0 6 23 20 50 14 28 28 50 30 50 3 0 -6 -22 -20
-50z m261 39 c10 -17 -13 -36 -27 -22 -12 12 -4 33 11 33 5 0 12 -5 16 -11z
m98 3 c2 -4 -4 -8 -15 -8 -10 0 -19 4 -19 8 0 4 6 8 14 8 8 0 17 -4 20 -8z
m542 -3 c10 -17 -13 -36 -27 -22 -12 12 -4 33 11 33 5 0 12 -5 16 -11z m-2188
-15 c8 -14 10 -14 21 0 21 26 35 18 17 -9 -9 -13 -16 -33 -16 -45 0 -11 -7
-20 -15 -20 -9 0 -15 9 -15 23 0 12 -7 33 -16 45 -13 19 -13 22 0 22 8 0 19
-7 24 -16z m142 10 c0 -3 -9 -18 -21 -32 l-21 -27 21 -3 c37 -6 23 -22 -19
-22 -22 0 -40 3 -40 7 0 4 12 20 27 35 l27 28 -27 0 c-15 0 -27 5 -27 10 0 6
18 10 40 10 22 0 40 -3 40 -6z m110 -44 c0 -22 -4 -40 -10 -40 -5 0 -10 18
-10 40 0 22 5 40 10 40 6 0 10 -18 10 -40z m478 18 c2 -13 -3 -18 -17 -18 -12
0 -21 -4 -21 -10 0 -5 7 -10 15 -10 8 0 15 -5 15 -11 0 -6 -10 -9 -22 -7 -24
3 -35 35 -24 64 8 21 50 14 54 -8z m230 -1 c2 -12 -3 -17 -17 -17 -28 0 -27
-18 2 -23 19 -3 20 -4 4 -11 -21 -10 -47 9 -47 33 0 38 51 54 58 18z m182 -17
c0 -22 -4 -40 -10 -40 -5 0 -10 18 -10 40 0 22 5 40 10 40 6 0 10 -18 10 -40z
m268 28 c18 -18 15 -26 -15 -31 -27 -4 -27 -4 -5 -12 27 -9 29 -25 2 -25 -27
0 -44 34 -30 60 12 23 30 26 48 8z m169 -50 c-2 -13 -4 -3 -4 22 0 25 2 35 4
23 2 -13 2 -33 0 -45z m143 22 c0 -22 -4 -40 -10 -40 -5 0 -10 18 -10 40 0 22
5 40 10 40 6 0 10 -18 10 -40z m178 17 c2 -12 -3 -17 -17 -17 -28 0 -27 -18 2
-23 19 -3 20 -4 4 -11 -21 -10 -47 9 -47 33 0 38 51 54 58 18z m230 0 c2 -12
-3 -17 -17 -17 -12 0 -21 -4 -21 -10 0 -5 9 -10 20 -10 11 0 20 -4 20 -10 0
-14 -33 -13 -48 2 -15 15 -15 41 0 56 17 17 42 11 46 -11z m142 -17 c0 -22 -4
-40 -10 -40 -5 0 -10 18 -10 40 0 22 5 40 10 40 6 0 10 -18 10 -40z m-1494 3
c-10 -10 -19 5 -10 18 6 11 8 11 12 0 2 -7 1 -15 -2 -18z m264 20 c0 -3 -7
-15 -17 -25 -15 -17 -15 -18 0 -18 10 0 17 -4 17 -10 0 -5 -13 -10 -30 -10
-33 0 -35 3 -20 31 7 13 7 19 0 19 -5 0 -10 5 -10 10 0 6 14 10 30 10 17 0 30
-3 30 -7z m295 -13 c4 -6 2 -17 -5 -24 -8 -11 -8 -15 2 -19 7 -3 2 -6 -11 -6
-20 -1 -22 2 -13 11 14 14 16 42 2 33 -5 -3 -10 -1 -10 4 0 14 27 14 35 1z
m645 -12 c0 -19 -1 -20 -12 -6 -7 9 -24 19 -38 21 -18 3 -14 5 13 6 32 1 37
-2 37 -21z m256 11 c10 -17 -13 -36 -27 -22 -12 12 -4 33 11 33 5 0 12 -5 16
-11z m164 -9 c0 -11 -4 -20 -10 -20 -5 0 -10 6 -10 14 0 8 -12 17 -27 19 -23
3 -21 4 10 6 31 1 37 -2 37 -19z m-2197 3 c-7 -2 -21 -2 -30 0 -10 3 -4 5 12
5 17 0 24 -2 18 -5z m1587 -42 c0 -11 -4 -22 -9 -25 -5 -3 -8 6 -8 19 0 14 3
25 8 25 5 0 9 -9 9 -19z m30 0 c0 -29 -15 -33 -16 -5 -1 13 2 24 7 24 5 0 9
-9 9 -19z m496 8 c3 -6 2 -15 -4 -21 -6 -6 -11 -2 -15 11 -5 22 7 29 19 10z
m-2006 -29 c0 -11 -4 -20 -8 -20 -4 0 -8 9 -9 20 -1 11 2 20 8 20 5 0 9 -9 9
-20z m554 -12 c-10 -16 -22 -7 -17 13 4 15 8 17 14 8 4 -7 5 -17 3 -21z m610
0 c-10 -16 -22 -7 -17 13 4 15 8 17 14 8 4 -7 5 -17 3 -21z m562 3 c-12 -19
-24 -12 -19 10 4 13 9 17 15 11 6 -6 7 -15 4 -21z m-1633 -328 c-7 -2 -14 -21
-15 -41 l-1 -37 -4 35 c-3 19 -10 38 -16 42 -7 4 1 7 18 7 17 0 24 -3 18 -6z
m134 -55 c-2 -13 -4 -3 -4 22 0 25 2 35 4 23 2 -13 2 -33 0 -45z m417 13 c1
-16 -2 -27 -6 -24 -5 2 -8 18 -8 35 0 39 13 29 14 -11z m-807 -33 c-2 -13 -4
-3 -4 22 0 25 2 35 4 23 2 -13 2 -33 0 -45z m166 55 c-7 -2 -13 -13 -13 -23 0
-10 6 -21 13 -23 9 -4 9 -6 -1 -6 -16 -1 -26 24 -18 44 3 8 11 15 18 14 10 0
10 -2 1 -6z m197 3 c0 -2 -7 -7 -16 -10 -8 -3 -12 -2 -9 4 6 10 25 14 25 6z
m220 0 c0 -2 -7 -7 -16 -10 -8 -3 -12 -2 -9 4 6 10 25 14 25 6z m137 -43 c-3
-10 -5 -2 -5 17 0 19 2 27 5 18 2 -10 2 -26 0 -35z m53 43 c0 -2 -7 -7 -16
-10 -8 -3 -12 -2 -9 4 6 10 25 14 25 6z m95 -6 c3 -6 -1 -7 -9 -4 -18 7 -21
14 -7 14 6 0 13 -4 16 -10z m-218 -37 c-3 -10 -5 -4 -5 12 0 17 2 24 5 18 2
-7 2 -21 0 -30z m-550 -5 c-3 -7 -5 -2 -5 12 0 14 2 19 5 13 2 -7 2 -19 0 -25z
m440 0 c-3 -7 -5 -2 -5 12 0 14 2 19 5 13 2 -7 2 -19 0 -25z m-662 2 c-3 -5
-12 -10 -18 -10 -7 0 -6 4 3 10 19 12 23 12 15 0z m480 -8 c-3 -3 -11 0 -18 7
-9 10 -8 11 6 5 10 -3 15 -9 12 -12z m410 0 c-3 -3 -11 0 -18 7 -9 10 -8 11 6
5 10 -3 15 -9 12 -12z m100 8 c-3 -5 -12 -10 -18 -10 -7 0 -6 4 3 10 19 12 23
12 15 0z m171 -417 c-7 -7 -26 7 -26 19 0 6 6 6 15 -2 9 -7 13 -15 11 -17z
m300 0 c-7 -7 -26 7 -26 19 0 6 6 6 15 -2 9 -7 13 -15 11 -17z m-1851 -8 c14
-13 25 -33 25 -45 0 -27 -43 -70 -70 -70 -27 0 -70 43 -70 70 0 27 43 70 70
70 12 0 32 -11 45 -25z m311 -35 c-1 -52 -2 -55 -26 -55 -20 0 -26 6 -28 28
-3 22 1 30 17 34 11 3 18 9 15 14 -3 5 -9 7 -13 5 -4 -3 -7 3 -8 12 -1 11 6
17 21 17 21 0 23 -4 22 -55z m1057 48 c3 -8 -4 -13 -19 -13 -24 0 -30 6 -17
18 11 11 30 8 36 -5z m62 -18 c0 -16 -6 -26 -17 -28 -10 -2 -18 2 -18 8 0 6 5
8 11 5 13 -9 8 27 -6 38 -6 5 -1 7 10 5 13 -2 20 -11 20 -28z m275 17 c0 -7
-9 -13 -20 -13 -20 0 -25 7 -13 19 11 12 33 8 33 -6z m-1170 -17 c0 -5 -7 -10
-15 -10 -8 0 -15 -4 -15 -10 0 -5 7 -10 15 -10 8 0 15 -4 15 -10 0 -5 -7 -10
-15 -10 -8 0 -15 -4 -15 -10 0 -5 7 -10 15 -10 8 0 15 -4 15 -10 0 -16 -77
-12 -94 6 -38 37 -7 84 55 84 21 0 39 -4 39 -10z m70 -40 c0 -27 -4 -50 -10
-50 -5 0 -10 23 -10 50 0 28 5 50 10 50 6 0 10 -22 10 -50z m85 41 c3 -5 -5
-11 -17 -13 -17 -2 -23 -10 -23 -28 0 -18 6 -26 23 -28 12 -2 20 -8 17 -13
-16 -25 -65 7 -65 41 0 34 49 66 65 41z m91 -16 c15 -23 15 -27 0 -50 -10 -16
-26 -25 -41 -25 -23 0 -25 3 -25 50 0 47 2 50 25 50 15 0 31 -9 41 -25z m44
-15 c0 -33 3 -40 20 -40 11 0 20 -4 20 -10 0 -5 -13 -10 -30 -10 -29 0 -30 1
-30 50 0 28 5 50 10 50 6 0 10 -18 10 -40z m110 18 l0 -22 16 22 c8 12 20 22
26 22 7 0 6 -5 -2 -15 -12 -14 -11 -29 5 -67 4 -11 3 -18 -3 -18 -6 0 -14 9
-17 20 -3 11 -11 20 -16 20 -5 0 -9 -9 -9 -20 0 -11 -4 -20 -10 -20 -5 0 -10
23 -10 50 0 28 5 50 10 50 6 0 10 -10 10 -22z m830 2 c0 -11 -6 -20 -14 -20
-18 0 -29 16 -21 30 11 18 35 11 35 -10z m-1402 -6 c8 -14 10 -14 21 0 21 26
35 18 17 -9 -9 -13 -16 -33 -16 -45 0 -11 -7 -20 -15 -20 -9 0 -15 9 -15 23 0
12 -7 33 -16 45 -13 19 -13 22 0 22 8 0 19 -7 24 -16z m690 -6 c17 -17 15 -43
-4 -59 -31 -26 -70 25 -44 56 15 18 32 19 48 3z m72 1 c0 -5 -4 -9 -10 -9 -5
0 -10 -13 -10 -30 0 -16 -4 -30 -10 -30 -5 0 -10 17 -10 38 0 31 4 38 20 39
11 1 20 -2 20 -8z m68 -12 c2 -12 -3 -17 -17 -17 -12 0 -21 -4 -21 -10 0 -5 9
-10 20 -10 11 0 20 -4 20 -10 0 -14 -33 -13 -48 2 -15 15 -15 41 0 56 17 17
42 11 46 -11z m76 7 c3 -9 6 -26 6 -39 0 -20 -5 -23 -27 -22 -36 3 -43 34 -11
46 l23 10 -23 0 c-13 1 -20 5 -17 11 10 16 42 12 49 -6z m104 -7 c2 -12 -3
-17 -17 -17 -12 0 -21 -4 -21 -10 0 -5 9 -10 20 -10 11 0 20 -4 20 -10 0 -14
-33 -13 -48 2 -15 15 -15 41 0 56 17 17 42 11 46 -11z m110 -35 c8 -2 12 7 12
27 0 17 5 31 10 31 6 0 10 -11 10 -24 0 -13 3 -32 7 -41 5 -14 2 -16 -13 -11
-22 6 -38 -2 -47 -24 -3 -8 -5 12 -5 45 0 42 2 51 7 31 3 -16 12 -31 19 -34z
m72 18 c0 -22 -4 -40 -10 -40 -5 0 -10 18 -10 40 0 22 5 40 10 40 6 0 10 -18
10 -40z m158 17 c2 -12 -3 -17 -17 -17 -28 0 -27 -18 2 -23 19 -3 20 -4 4 -11
-21 -10 -47 9 -47 33 0 38 51 54 58 18z m142 -17 c0 -22 -4 -40 -10 -40 -5 0
-10 18 -10 40 0 22 5 40 10 40 6 0 10 -18 10 -40z m-40 0 c0 -11 -7 -20 -15
-20 -8 0 -15 9 -15 20 0 11 7 20 15 20 8 0 15 -9 15 -20z m159 -2 c-1 -16 -3
-18 -6 -6 -2 9 -16 19 -31 21 -24 4 -24 4 6 6 27 1 32 -2 31 -21z m-79 -37 c0
-29 -15 -33 -16 -5 -1 13 2 24 7 24 5 0 9 -9 9 -19z m-276 -33 c-10 -16 -22
-7 -17 13 4 15 8 17 14 8 4 -7 5 -17 3 -21z m-1267 -380 c-2 -13 -4 -3 -4 22
0 25 2 35 4 23 2 -13 2 -33 0 -45z m580 0 c-2 -13 -4 -3 -4 22 0 25 2 35 4 23
2 -13 2 -33 0 -45z m71 51 c-10 -5 -19 -20 -19 -32 -1 -18 -2 -18 -6 -4 -5 20
13 47 31 47 6 0 3 -5 -6 -11z m-554 -38 c1 -16 -2 -27 -6 -24 -5 2 -8 18 -8
35 0 39 13 29 14 -11z m250 -1 c1 -16 -2 -30 -5 -30 -8 0 -17 58 -11 65 9 9
15 -4 16 -35z m450 1 c1 -16 -2 -27 -6 -24 -5 2 -8 18 -8 35 0 39 13 29 14
-11z m-738 -7 l2 -29 -5 28 c-3 20 -9 27 -19 23 -9 -3 -12 -2 -9 5 12 18 30 3
31 -27z m102 18 c2 -7 -6 -12 -20 -12 -22 -1 -22 -1 -4 -15 11 -8 15 -15 10
-15 -12 0 -34 21 -34 32 0 4 10 8 23 8 18 0 19 2 7 11 -12 9 -12 10 -1 7 8 -3
17 -10 19 -16z m19 -29 c-3 -10 -5 -2 -5 17 0 19 2 27 5 18 2 -10 2 -26 0 -35z
m40 0 c-3 -10 -5 -2 -5 17 0 19 2 27 5 18 2 -10 2 -26 0 -35z m33 17 c0 -16
-2 -30 -4 -30 -2 0 -6 14 -8 30 -3 17 -1 30 4 30 4 0 8 -13 8 -30z m57 -6 c1
-25 0 -26 -4 -4 -3 14 -10 29 -17 33 -7 6 -6 7 4 4 8 -2 16 -16 17 -33z m106
29 c-7 -2 -13 -13 -13 -23 0 -10 6 -21 13 -23 9 -4 9 -6 -1 -6 -7 -1 -15 6
-18 14 -8 20 2 45 18 44 10 0 10 -2 1 -6z m44 -40 c-3 -10 -5 -2 -5 17 0 19 2
27 5 18 2 -10 2 -26 0 -35z m88 36 c11 -16 1 -19 -13 -3 -7 8 -8 14 -3 14 5 0
13 -5 16 -11z m172 5 c-3 -3 -12 -4 -19 -1 -8 3 -5 6 6 6 11 1 17 -2 13 -5z
m30 -41 c-3 -10 -5 -2 -5 17 0 19 2 27 5 18 2 -10 2 -26 0 -35z m190 41 c-3
-3 -12 -4 -19 -1 -8 3 -5 6 6 6 11 1 17 -2 13 -5z m63 -2 c0 -4 -9 -8 -19 -8
-11 0 -17 4 -15 8 3 4 12 8 20 8 8 0 14 -4 14 -8z m-292 -19 c-10 -2 -18 -8
-18 -13 0 -5 8 -11 18 -14 13 -4 13 -4 -3 -3 -30 3 -33 37 -3 36 17 -1 18 -3
6 -6z m220 0 c-10 -2 -18 -8 -18 -13 0 -5 8 -11 18 -14 13 -4 13 -4 -3 -3 -30
3 -33 37 -3 36 17 -1 18 -3 6 -6z m-644 -18 c3 -8 1 -15 -4 -15 -6 0 -10 7
-10 15 0 8 2 15 4 15 2 0 6 -7 10 -15z m256 -9 c-7 -7 -13 -7 -20 0 -6 6 -3
10 10 10 13 0 16 -4 10 -10z m460 2 c0 -4 -6 -8 -14 -8 -8 0 -17 4 -20 8 -2 4
4 8 15 8 10 0 19 -4 19 -8z m-144 -415 c-7 -7 -26 7 -26 19 0 6 6 6 15 -2 9
-7 13 -15 11 -17z m369 -1 c-8 -8 -25 10 -19 20 4 6 9 5 15 -3 4 -7 6 -15 4
-17z m121 1 c-7 -7 -26 7 -26 19 0 6 6 6 15 -2 9 -7 13 -15 11 -17z m184 19
c0 -4 -9 -8 -20 -9 -11 -1 -18 2 -15 8 7 11 35 12 35 1z m156 -19 c-7 -7 -26
7 -26 19 0 6 6 6 15 -2 9 -7 13 -15 11 -17z m299 8 c-3 -6 -11 -11 -17 -11 -6
0 -6 6 2 15 14 17 26 13 15 -4z m182 -7 c-9 -9 -28 6 -21 18 4 6 10 6 17 -1 6
-6 8 -13 4 -17z m168 -2 c-8 -8 -25 10 -19 20 4 6 9 5 15 -3 4 -7 6 -15 4 -17z
m306 5 c-13 -13 -26 -3 -16 12 3 6 11 8 17 5 6 -4 6 -10 -1 -17z m476 -3 c-9
-9 -28 6 -21 18 4 6 10 6 17 -1 6 -6 8 -13 4 -17z m-3470 -6 c29 -27 29 -65 1
-95 -27 -29 -65 -29 -95 -1 -29 27 -29 65 -1 95 27 29 65 29 95 1z m300 6 c2
-5 -6 -10 -17 -10 -20 0 -25 7 -13 20 9 8 26 3 30 -10z m360 1 c2 -5 -8 -10
-21 -10 -15 0 -22 5 -18 13 5 15 34 12 39 -3z m160 0 c2 -5 -8 -10 -21 -10
-15 0 -22 5 -18 13 5 15 34 12 39 -3z m203 2 c0 -7 -9 -13 -20 -13 -20 0 -25
7 -13 19 11 12 33 8 33 -6z m63 -9 c3 -12 4 -25 1 -30 -7 -12 -34 -10 -34 3 0
5 5 7 11 4 13 -9 8 27 -6 37 -6 5 -3 8 6 8 9 0 19 -10 22 -22z m2260 10 c3 -8
-4 -13 -19 -13 -24 0 -30 6 -17 18 11 11 30 8 36 -5z m-1903 -23 c0 -8 -4 -16
-9 -19 -5 -3 -8 5 -8 19 0 14 3 22 8 19 5 -3 9 -11 9 -19z m30 6 c0 -29 -15
-33 -16 -5 -1 13 2 24 7 24 5 0 9 -9 9 -19z m40 0 c0 -29 -15 -33 -16 -5 -1
13 2 24 7 24 5 0 9 -9 9 -19z m29 -17 c-14 -13 -15 -13 -13 8 1 13 3 25 3 28
1 2 6 -1 13 -8 10 -9 9 -16 -3 -28z m1081 25 c0 -5 -4 -8 -9 -4 -5 3 -12 1
-15 -4 -4 -5 3 -13 14 -16 17 -5 21 -14 18 -43 -3 -33 -6 -37 -33 -39 -20 -1
-23 0 -7 4 27 6 29 20 2 28 -15 5 -20 14 -18 38 1 18 3 35 5 40 6 11 43 8 43
-4z m620 1 c0 -5 -4 -10 -10 -10 -5 0 -10 5 -10 10 0 6 5 10 10 10 6 0 10 -4
10 -10z m30 0 c0 -5 -4 -10 -10 -10 -5 0 -10 5 -10 10 0 6 5 10 10 10 6 0 10
-4 10 -10z m-2394 -11 c10 -17 -13 -36 -27 -22 -12 12 -4 33 11 33 5 0 12 -5
16 -11z m79 1 c3 -6 -4 -10 -17 -11 -22 0 -22 -1 -3 -9 l20 -9 -20 -1 -20 -1
20 -9 c17 -7 17 -9 3 -9 -26 -1 -22 -19 5 -24 20 -3 20 -4 4 -12 -21 -9 -47
11 -51 41 -6 35 43 71 59 44z m685 -4 c-7 -7 -13 -7 -20 0 -6 6 -3 10 10 10
13 0 16 -4 10 -10z m248 -35 c8 -23 11 -45 7 -49 -4 -4 -10 -1 -12 6 -3 6 -13
12 -23 12 -10 0 -20 -6 -23 -12 -2 -7 -7 -10 -11 -7 -10 9 25 100 37 96 6 -2
17 -22 25 -46z m250 -13 l-1 -63 -7 60 -7 60 -3 -60 c-2 -34 -5 -48 -7 -32 -3
16 -11 31 -19 34 -17 6 -19 49 -1 56 40 17 47 9 45 -55z m322 52 c0 -5 -9 -10
-20 -10 -11 0 -20 -4 -20 -10 0 -5 7 -10 15 -10 8 0 15 -4 15 -10 0 -5 -7 -10
-15 -10 -8 0 -15 -4 -15 -10 0 -5 9 -10 20 -10 11 0 20 -4 20 -10 0 -14 -84
-12 -98 2 -7 7 -12 24 -12 38 0 14 5 31 12 38 14 14 98 16 98 2z m624 2 c2 -4
-4 -8 -15 -8 -10 0 -19 4 -19 8 0 4 6 8 14 8 8 0 17 -4 20 -8z m-2780 -28 c3
-9 6 -26 6 -39 0 -20 -5 -23 -27 -22 -36 3 -43 34 -11 46 l23 10 -23 0 c-13 1
-20 5 -17 11 10 16 42 12 49 -6z m124 -6 c2 -13 -3 -18 -17 -18 -12 0 -21 -4
-21 -10 0 -5 9 -10 21 -10 11 0 18 -4 15 -9 -8 -12 -77 -10 -93 2 -16 12 -17
39 -2 54 6 6 30 10 52 10 31 -2 43 -7 45 -19z m230 10 c18 -18 15 -26 -15 -31
-27 -4 -27 -4 -5 -12 27 -9 29 -25 2 -25 -27 0 -44 34 -30 60 12 23 30 26 48
8z m42 -19 c0 -38 24 -35 28 4 2 15 7 27 11 27 5 0 6 -11 3 -25 -2 -14 2 -32
9 -41 11 -14 10 -16 -6 -14 -35 4 -45 0 -45 -15 0 -8 -4 -15 -10 -15 -5 0 -10
25 -10 55 0 30 5 55 10 55 6 0 10 -14 10 -31z m118 19 c18 -18 15 -26 -15 -31
-27 -4 -27 -4 -5 -12 27 -9 29 -25 2 -25 -27 0 -44 34 -30 60 12 23 30 26 48
8z m210 -11 c2 -12 -3 -17 -17 -17 -28 0 -27 -18 2 -23 19 -3 20 -4 4 -11 -21
-10 -47 9 -47 33 0 38 51 54 58 18z m92 -8 c0 -38 24 -35 28 4 2 15 7 27 11
27 5 0 6 -11 3 -25 -2 -14 2 -32 9 -41 11 -14 10 -16 -6 -14 -35 4 -45 0 -45
-15 0 -8 -4 -15 -10 -15 -5 0 -10 25 -10 55 0 30 5 55 10 55 6 0 10 -14 10
-31z m90 -9 c0 -22 -4 -40 -10 -40 -5 0 -10 18 -10 40 0 22 5 40 10 40 6 0 10
-18 10 -40z m188 18 c2 -13 -3 -18 -17 -18 -12 0 -21 -4 -21 -10 0 -5 7 -10
15 -10 8 0 15 -5 15 -11 0 -6 -10 -9 -22 -7 -24 3 -35 35 -24 64 8 21 50 14
54 -8z m179 -40 c-2 -13 -4 -3 -4 22 0 25 2 35 4 23 2 -13 2 -33 0 -45z m123
22 c0 -22 -4 -40 -10 -40 -5 0 -10 18 -10 40 0 22 5 40 10 40 6 0 10 -18 10
-40z m340 0 c0 -22 -4 -40 -10 -40 -5 0 -10 18 -10 40 0 22 5 40 10 40 6 0 10
-18 10 -40z m248 18 c2 -13 -3 -18 -17 -18 -12 0 -21 -4 -21 -10 0 -5 9 -10
21 -10 11 0 18 -4 15 -9 -3 -4 -24 -8 -46 -8 -47 0 -68 23 -50 56 14 26 93 25
98 -1z m42 -18 c0 -22 -4 -40 -10 -40 -5 0 -10 18 -10 40 0 22 5 40 10 40 6 0
10 -18 10 -40z m200 0 c0 -22 -4 -40 -10 -40 -5 0 -10 18 -10 40 0 22 5 40 10
40 6 0 10 -18 10 -40z m157 -22 c-2 -13 -4 -3 -4 22 0 25 2 35 4 23 2 -13 2
-33 0 -45z m293 22 c0 -22 -4 -40 -10 -40 -5 0 -10 18 -10 40 0 22 5 40 10 40
6 0 10 -18 10 -40z m188 18 c2 -13 -3 -18 -17 -18 -12 0 -21 -4 -21 -10 0 -5
7 -10 15 -10 8 0 15 -5 15 -11 0 -6 -10 -9 -22 -7 -24 3 -35 35 -24 64 8 21
50 14 54 -8z m180 -1 c2 -12 -3 -17 -17 -17 -12 0 -21 -4 -21 -10 0 -5 9 -10
20 -10 11 0 20 -4 20 -10 0 -14 -33 -13 -48 2 -15 15 -15 41 0 56 17 17 42 11
46 -11z m42 -7 c0 -16 5 -30 10 -30 6 0 10 14 10 30 0 17 5 30 10 30 6 0 10
-11 10 -24 0 -13 3 -32 6 -41 5 -11 2 -16 -7 -15 -28 4 -39 0 -39 -15 0 -8 -4
-15 -10 -15 -5 0 -10 25 -10 55 0 30 5 55 10 55 6 0 10 -13 10 -30z m90 -10
c0 -22 -4 -40 -10 -40 -5 0 -10 18 -10 40 0 22 5 40 10 40 6 0 10 -18 10 -40z
m-1820 23 c0 -3 -7 -15 -17 -25 -15 -17 -15 -18 0 -18 10 0 17 -4 17 -10 0 -5
-13 -10 -30 -10 -34 0 -37 6 -13 32 15 17 15 18 0 18 -10 0 -17 5 -17 10 0 6
14 10 30 10 17 0 30 -3 30 -7z m286 -20 c-10 -10 -19 5 -10 18 6 11 8 11 12 0
2 -7 1 -15 -2 -18z m1074 -18 c-13 -12 -15 -11 -15 15 0 26 2 28 15 15 13 -13
13 -17 0 -30z m-2550 25 c0 -5 -4 -10 -10 -10 -5 0 -10 5 -10 10 0 6 5 10 10
10 6 0 10 -4 10 -10z m40 0 c0 -5 -4 -10 -10 -10 -5 0 -10 5 -10 10 0 6 5 10
10 10 6 0 10 -4 10 -10z m50 6 c0 -3 -4 -8 -10 -11 -5 -3 -10 -1 -10 4 0 6 5
11 10 11 6 0 10 -2 10 -4z m2290 -6 c0 -5 -2 -10 -4 -10 -3 0 -8 5 -11 10 -3
6 -1 10 4 10 6 0 11 -4 11 -10z m50 0 c0 -5 -4 -10 -10 -10 -5 0 -10 5 -10 10
0 6 5 10 10 10 6 0 10 -4 10 -10z m40 0 c0 -5 -4 -10 -10 -10 -5 0 -10 5 -10
10 0 6 5 10 10 10 6 0 10 -4 10 -10z m659 -12 c-1 -16 -3 -18 -6 -6 -2 9 -16
19 -31 21 -24 4 -24 4 6 6 27 1 32 -2 31 -21z m-801 5 c-15 -2 -42 -2 -60 0
-18 2 -6 4 27 4 33 0 48 -2 33 -4z m722 -42 c0 -11 -4 -22 -9 -25 -5 -3 -8 6
-8 19 0 14 3 25 8 25 5 0 9 -9 9 -19z m-2250 -21 c0 -11 -4 -20 -8 -20 -4 0
-8 9 -9 20 -1 11 2 20 8 20 5 0 9 -9 9 -20z m486 -9 c-4 -6 -13 -11 -19 -10
-9 0 -9 2 0 5 7 3 9 13 6 22 -5 13 -3 14 7 5 7 -6 9 -16 6 -22z m-1409 -383
c-2 -13 -4 -3 -4 22 0 25 2 35 4 23 2 -13 2 -33 0 -45z m370 0 c-2 -13 -4 -3
-4 22 0 25 2 35 4 23 2 -13 2 -33 0 -45z m71 -11 c12 -3 11 -5 -5 -6 -21 -1
-23 3 -21 42 l1 42 4 -37 c3 -24 10 -38 21 -41z m-228 49 c0 -2 -7 -7 -16 -10
-8 -3 -12 -2 -9 4 6 10 25 14 25 6z m37 -43 c-3 -10 -5 -2 -5 17 0 19 2 27 5
18 2 -10 2 -26 0 -35z m266 40 c-7 -2 -13 -13 -13 -23 0 -10 6 -21 13 -23 9
-4 9 -6 -1 -6 -16 -1 -26 24 -18 44 3 8 11 15 18 14 10 0 10 -2 1 -6z m125
-34 c-3 -20 -5 -19 -9 9 -3 20 -2 29 4 23 5 -5 7 -19 5 -32z m-541 -11 c-3 -7
-5 -2 -5 12 0 14 2 19 5 13 2 -7 2 -19 0 -25z m456 12 c3 -11 1 -18 -4 -14 -5
3 -9 12 -9 20 0 20 7 17 13 -6z m-515 -15 c-3 -3 -9 2 -12 12 -6 14 -5 15 5 6
7 -7 10 -15 7 -18z m167 -3 c-3 -3 -11 0 -18 7 -9 10 -8 11 6 5 10 -3 15 -9
12 -12z m-560 -417 c14 -13 25 -33 25 -45 0 -27 -43 -70 -70 -70 -27 0 -70 43
-70 70 0 27 43 70 70 70 12 0 32 -11 45 -25z m311 -35 c-1 -52 -2 -55 -26 -55
-20 0 -26 6 -28 28 -3 22 1 30 17 34 11 3 18 9 15 14 -3 5 -9 7 -13 5 -4 -3
-7 3 -8 12 -1 11 6 17 21 17 21 0 23 -4 22 -55z m1164 -4 c0 -53 -1 -55 -26
-53 -49 4 -59 62 -14 74 11 3 20 12 20 19 0 8 5 14 10 14 6 0 10 -24 10 -54z
m-810 -1 c13 -46 7 -72 -10 -45 -8 12 -13 13 -30 3 -29 -19 -30 -18 -12 37 9
28 21 50 28 50 6 0 17 -20 24 -45z m50 -5 c0 -27 -4 -50 -10 -50 -5 0 -10 23
-10 50 0 28 5 50 10 50 6 0 10 -22 10 -50z m110 40 c0 -5 -9 -10 -19 -10 -10
0 -21 -7 -25 -15 -9 -25 5 -45 31 -45 13 0 21 -4 18 -10 -11 -17 -43 -11 -59
11 -14 21 -12 42 7 67 11 14 47 16 47 2z m262 -28 c-14 -4 -16 -42 -2 -42 6 0
10 -4 10 -10 0 -23 -30 -8 -36 18 -3 15 -7 32 -9 38 -7 22 17 34 34 17 12 -12
13 -17 3 -21z m303 28 c-3 -5 -13 -10 -21 -10 -8 0 -14 -4 -14 -10 0 -5 7 -10
15 -10 8 0 15 -4 15 -10 0 -5 -7 -10 -15 -10 -8 0 -15 -4 -15 -10 0 -5 9 -10
20 -10 11 0 20 -4 20 -10 0 -5 -13 -10 -30 -10 -29 0 -30 1 -30 50 0 49 1 50
31 50 17 0 28 -4 24 -10z m358 -4 c3 -8 3 -24 0 -35 -3 -12 1 -28 8 -37 12
-14 11 -16 -6 -13 -29 6 -43 99 -15 99 4 0 10 -6 13 -14z m-1385 -12 c8 -14
10 -14 21 0 21 26 35 18 17 -9 -9 -13 -16 -33 -16 -45 0 -11 -7 -20 -15 -20
-9 0 -15 9 -15 23 0 12 -7 33 -16 45 -13 19 -13 22 0 22 8 0 19 -7 24 -16z
m124 -26 c-3 -29 -7 -33 -32 -33 -25 0 -27 3 -27 33 1 29 4 32 32 32 29 0 31
-2 27 -32z m393 12 c-8 -9 -15 -26 -15 -38 0 -12 -4 -22 -10 -22 -5 0 -10 17
-10 39 0 35 3 39 25 39 24 0 25 -2 10 -18z m73 8 c18 -18 15 -26 -15 -31 -27
-4 -27 -4 -5 -12 27 -9 29 -25 2 -25 -27 0 -44 34 -30 60 12 23 30 26 48 8z
m80 -28 c3 -32 0 -36 -22 -38 -35 -3 -44 18 -16 40 17 14 19 18 6 18 -9 0 -16
5 -16 11 0 6 10 9 23 7 17 -2 23 -10 25 -38z m89 -22 c-2 -13 -4 -3 -4 22 0
25 2 35 4 23 2 -13 2 -33 0 -45z m49 30 l7 -33 9 33 c5 17 12 32 17 32 4 0 3
-18 -2 -40 -13 -48 -31 -51 -46 -9 -13 39 -14 49 -2 49 5 0 13 -15 17 -32z
m112 10 c2 -13 -3 -18 -17 -18 -12 0 -21 -4 -21 -10 0 -5 7 -10 15 -10 8 0 15
-5 15 -11 0 -6 -10 -9 -22 -7 -24 3 -35 35 -24 64 8 21 50 14 54 -8z m232 -8
c0 -16 5 -30 10 -30 6 0 10 14 10 30 0 17 5 30 10 30 6 0 10 -18 10 -39 0 -37
-2 -40 -27 -38 -25 2 -28 7 -31 40 -2 21 1 37 7 37 6 0 11 -13 11 -30z m110
20 c0 -5 -7 -10 -15 -10 -8 0 -15 -9 -15 -20 0 -11 7 -20 15 -20 8 0 15 -5 15
-11 0 -6 -10 -9 -22 -7 -43 6 -34 77 10 78 6 0 12 -4 12 -10z m74 -6 c3 -9 6
-26 6 -39 0 -20 -5 -23 -27 -22 -36 3 -43 34 -11 46 l23 10 -23 0 c-13 1 -20
5 -17 11 10 16 42 12 49 -6z m134 -1 c15 -28 -4 -65 -30 -61 -23 3 -35 35 -24
64 8 20 43 18 54 -3z m57 -3 c-8 -9 -15 -26 -15 -38 0 -12 -4 -22 -10 -22 -5
0 -10 17 -10 39 0 35 3 39 25 39 24 0 25 -2 10 -18z m-1337 -17 c-10 -2 -26
-2 -35 0 -10 3 -2 5 17 5 19 0 27 -2 18 -5z m-141 -455 c-2 -13 -4 -3 -4 22 0
25 2 35 4 23 2 -13 2 -33 0 -45z m71 55 c-21 -5 -24 -23 -5 -24 10 0 10 -2 0
-6 -19 -7 -16 -31 5 -36 13 -4 11 -5 -5 -6 -20 -1 -23 4 -23 39 0 35 3 40 23
39 16 -1 18 -2 5 -6z m789 -55 c-2 -13 -4 -3 -4 22 0 25 2 35 4 23 2 -13 2
-33 0 -45z m-513 13 c1 -16 -2 -27 -6 -24 -5 2 -8 18 -8 35 0 39 13 29 14 -11z
m-204 25 c0 -2 -9 -6 -20 -9 -11 -3 -18 -1 -14 4 5 9 34 13 34 5z m48 -41 c13
5 14 3 5 -6 -17 -17 -33 -2 -32 29 l2 27 4 -28 c3 -22 8 -27 21 -22z m55 38
c-7 -2 -13 -13 -13 -23 0 -10 6 -21 13 -23 9 -4 9 -6 -1 -6 -16 -1 -26 24 -18
44 3 8 11 15 18 14 10 0 10 -2 1 -6z m64 -29 c1 -25 0 -26 -4 -4 -3 14 -10 29
-17 33 -7 6 -6 7 4 4 8 -2 16 -16 17 -33z m388 25 c11 -16 1 -19 -13 -3 -7 8
-8 14 -3 14 5 0 13 -5 16 -11z m132 -25 c1 -25 0 -26 -4 -4 -3 14 -10 29 -17
33 -7 6 -6 7 4 4 8 -2 16 -16 17 -33z m103 32 c0 -2 -7 -7 -16 -10 -8 -3 -12
-2 -9 4 6 10 25 14 25 6z m-960 -28 c0 -4 -9 -8 -20 -8 -11 0 -20 4 -20 8 0 4
9 8 20 8 11 0 20 -4 20 -8z m314 -14 c3 -8 2 -12 -4 -9 -6 3 -10 10 -10 16 0
14 7 11 14 -7z m213 -6 c-3 -8 -6 -5 -6 6 -1 11 2 17 5 13 3 -3 4 -12 1 -19z
m78 3 c-3 -6 -11 -11 -16 -11 -5 0 -4 6 3 14 14 16 24 13 13 -3z m229 3 c3 -8
2 -12 -4 -9 -6 3 -10 10 -10 16 0 14 7 11 14 -7z m-169 -4 c-3 -5 -14 -10 -23
-9 -14 0 -13 2 3 9 27 11 27 11 20 0z m50 -8 c-3 -3 -11 0 -18 7 -9 10 -8 11
6 5 10 -3 15 -9 12 -12z m7690 -972 c3 -6 -1 -7 -9 -4 -18 7 -21 14 -7 14 6 0
13 -4 16 -10z m215 1 c0 -6 -5 -13 -12 -17 -6 -4 -8 -3 -4 4 3 6 -2 13 -11 15
-14 4 -13 5 5 6 12 0 22 -3 22 -8z m27 -43 c-2 -13 -4 -5 -4 17 -1 22 1 32 4
23 2 -10 2 -28 0 -40z m-280 10 c-3 -8 -6 -5 -6 6 -1 11 2 17 5 13 3 -3 4 -12
1 -19z m-87 8 c0 -2 -11 -6 -25 -8 -14 -3 -25 -1 -25 3 0 5 11 9 25 9 14 0 25
-2 25 -4z m340 -32 c0 -2 -9 -4 -20 -4 -11 0 -20 4 -20 9 0 5 9 7 20 4 11 -3
20 -7 20 -9z m-383 -516 c-2 -13 -4 -5 -4 17 -1 22 1 32 4 23 2 -10 2 -28 0
-40z m220 0 c-2 -13 -4 -5 -4 17 -1 22 1 32 4 23 2 -10 2 -28 0 -40z m138 42
c3 -6 -1 -7 -9 -4 -18 7 -21 14 -7 14 6 0 13 -4 16 -10z m32 -42 c-2 -13 -4
-5 -4 17 -1 22 1 32 4 23 2 -10 2 -28 0 -40z m66 45 c-7 -2 -21 -2 -30 0 -10
3 -4 5 12 5 17 0 24 -2 18 -5z m-310 -33 c-3 -11 -7 -20 -9 -20 -2 0 -4 9 -4
20 0 11 4 20 9 20 5 0 7 -9 4 -20z m174 -2 c-3 -8 -6 -5 -6 6 -1 11 2 17 5 13
3 -3 4 -12 1 -19z m136 -25 c-7 -2 -21 -2 -30 0 -10 3 -4 5 12 5 17 0 24 -2
18 -5z m-238 -473 c3 -6 -1 -7 -9 -4 -18 7 -21 14 -7 14 6 0 13 -4 16 -10z
m32 -57 c-2 -16 -4 -5 -4 22 0 28 2 40 4 28 2 -13 2 -35 0 -50z m45 33 c2 -19
0 -32 -4 -30 -8 5 -12 64 -4 64 2 0 6 -15 8 -34z m143 24 c3 -6 -1 -7 -9 -4
-18 7 -21 14 -7 14 6 0 13 -4 16 -10z m-258 -32 c-3 -8 -6 -5 -6 6 -1 11 2 17
5 13 3 -3 4 -12 1 -19z m220 0 c-3 -8 -6 -5 -6 6 -1 11 2 17 5 13 3 -3 4 -12
1 -19z m-307 8 c0 -2 -11 -6 -25 -8 -14 -3 -25 -1 -25 3 0 5 11 9 25 9 14 0
25 -2 25 -4z m-82 -483 c-10 -2 -26 -2 -35 0 -10 3 -2 5 17 5 19 0 27 -2 18
-5z m77 -23 c3 -6 -1 -7 -9 -4 -18 7 -21 14 -7 14 6 0 13 -4 16 -10z m65 1 c0
-6 -5 -13 -12 -17 -6 -4 -8 -3 -4 4 3 6 -2 13 -11 15 -14 4 -13 5 5 6 12 0 22
-3 22 -8z m175 -1 c3 -6 -1 -7 -9 -4 -18 7 -21 14 -7 14 6 0 13 -4 16 -10z
m-528 -32 c-3 -8 -6 -5 -6 6 -1 11 2 17 5 13 3 -3 4 -12 1 -19z m210 16 c-3
-3 -12 -4 -19 -1 -8 3 -5 6 6 6 11 1 17 -2 13 -5z m40 -16 c-3 -8 -6 -5 -6 6
-1 11 2 17 5 13 3 -3 4 -12 1 -19z m240 0 c-3 -8 -6 -5 -6 6 -1 11 2 17 5 13
3 -3 4 -12 1 -19z m-137 -24 c0 -2 -9 -4 -20 -4 -11 0 -20 4 -20 9 0 5 9 7 20
4 11 -3 20 -7 20 -9z m-142 -1 c-10 -2 -26 -2 -35 0 -10 3 -2 5 17 5 19 0 27
-2 18 -5z m340 -450 c-10 -2 -28 -2 -40 0 -13 2 -5 4 17 4 22 1 32 -1 23 -4z
m-261 -65 c-2 -13 -4 -5 -4 17 -1 22 1 32 4 23 2 -10 2 -28 0 -40z m260 26
c-3 -3 -12 -4 -19 -1 -8 3 -5 6 6 6 11 1 17 -2 13 -5z m-517 -8 c0 -2 -11 -6
-25 -8 -14 -3 -25 -1 -25 3 0 5 11 9 25 9 14 0 25 -2 25 -4z m518 -33 c-10 -2
-28 -2 -40 0 -13 2 -5 4 17 4 22 1 32 -1 23 -4z"/>
<path d="M1150 23355 c0 -8 7 -15 15 -15 8 0 15 7 15 15 0 8 -7 15 -15 15 -8
0 -15 -7 -15 -15z"/>
<path d="M708 21342 c-22 -4 -24 -42 -3 -42 16 0 30 23 23 38 -1 4 -11 6 -20
4z"/>
<path d="M2854 21356 c-9 -24 0 -51 19 -54 14 -3 17 4 17 32 0 26 -4 36 -15
36 -9 0 -18 -6 -21 -14z"/>
<path d="M4064 21356 c-9 -24 0 -51 19 -54 14 -3 17 4 17 32 0 26 -4 36 -15
36 -9 0 -18 -6 -21 -14z"/>
<path d="M1620 21340 c0 -13 5 -20 13 -17 6 2 12 10 12 17 0 7 -6 15 -12 18
-8 2 -13 -5 -13 -18z"/>
<path d="M1695 21350 c-3 -5 3 -10 15 -10 12 0 18 5 15 10 -3 6 -10 10 -15 10
-5 0 -12 -4 -15 -10z"/>
<path d="M1824 21346 c-8 -21 3 -49 16 -41 5 3 10 15 10 25 0 25 -18 36 -26
16z"/>
<path d="M1875 21350 c-3 -5 1 -10 10 -10 9 0 13 5 10 10 -3 6 -8 10 -10 10
-2 0 -7 -4 -10 -10z"/>
<path d="M2150 21340 c0 -5 7 -10 15 -10 8 0 15 5 15 10 0 6 -7 10 -15 10 -8
0 -15 -4 -15 -10z"/>
<path d="M2515 21340 c-3 -5 3 -10 14 -10 12 0 21 5 21 10 0 6 -6 10 -14 10
-8 0 -18 -4 -21 -10z"/>
<path d="M2725 21340 c-3 -5 3 -10 15 -10 12 0 18 5 15 10 -3 6 -10 10 -15 10
-5 0 -12 -4 -15 -10z"/>
<path d="M3110 21325 c0 -20 4 -26 18 -23 9 2 17 12 17 23 0 11 -8 21 -17 23
-14 3 -18 -3 -18 -23z"/>
<path d="M3670 21325 c0 -20 4 -26 18 -23 9 2 17 12 17 23 0 11 -8 21 -17 23
-14 3 -18 -3 -18 -23z"/>
<path d="M3935 21340 c-3 -5 3 -10 15 -10 12 0 18 5 15 10 -3 6 -10 10 -15 10
-5 0 -12 -4 -15 -10z"/>
<path d="M4896 20314 c-9 -8 -16 -24 -16 -34 0 -18 25 -50 39 -50 30 0 44 83
15 94 -21 8 -20 8 -38 -10z"/>
<path d="M4862 19568 c-16 -16 -15 -63 2 -77 19 -16 45 -3 53 27 10 43 -27 78
-55 50z"/>
<path d="M4962 18818 c-16 -16 -15 -63 2 -77 19 -16 45 -3 53 27 10 43 -27 78
-55 50z"/>
<path d="M4956 18064 c-9 -8 -16 -24 -16 -34 0 -18 25 -50 39 -50 30 0 44 83
15 94 -21 8 -20 8 -38 -10z"/>
<path d="M705 16480 c-8 -25 10 -50 36 -50 20 0 36 40 24 59 -11 19 -53 12
-60 -9z"/>
<path d="M2290 16176 c-28 -35 11 -93 48 -70 35 22 22 84 -18 84 -10 0 -23 -7
-30 -14z m50 -16 c0 -5 -7 -7 -15 -4 -10 4 -15 0 -15 -14 0 -11 8 -23 18 -25
13 -4 12 -5 -5 -6 -27 -1 -36 12 -28 39 6 20 45 29 45 10z"/>
<path d="M707 16150 c-3 -12 0 -20 8 -20 8 0 11 8 8 20 -3 11 -7 20 -8 20 -1
0 -5 -9 -8 -20z"/>
<path d="M1390 16120 c0 -5 5 -10 11 -10 5 0 7 5 4 10 -3 6 -8 10 -11 10 -2 0
-4 -4 -4 -10z"/>
<path d="M1704 16155 c-8 -19 2 -45 16 -45 5 0 10 14 10 30 0 31 -16 41 -26
15z"/>
<path d="M1538 16143 c7 -3 16 -2 19 1 4 3 -2 6 -13 5 -11 0 -14 -3 -6 -6z"/>
<path d="M1838 16143 c7 -3 16 -2 19 1 4 3 -2 6 -13 5 -11 0 -14 -3 -6 -6z"/>
<path d="M2000 16130 c0 -13 5 -20 13 -17 6 2 12 10 12 17 0 7 -6 15 -12 18
-8 2 -13 -5 -13 -18z"/>
<path d="M2138 16143 c7 -3 16 -2 19 1 4 3 -2 6 -13 5 -11 0 -14 -3 -6 -6z"/>
<path d="M800 15405 c0 -8 7 -15 15 -15 8 0 15 7 15 15 0 8 -7 15 -15 15 -8 0
-15 -7 -15 -15z"/>
<path d="M705 14740 c-8 -25 10 -50 36 -50 20 0 36 40 24 59 -11 19 -53 12
-60 -9z"/>
<path d="M946 14428 c-13 -19 -14 -25 -2 -43 20 -30 54 -31 67 -2 24 53 -33
91 -65 45z m32 -9 c-24 -14 -22 -28 5 -39 l22 -9 -23 0 c-24 -1 -38 20 -28 44
3 8 13 15 23 15 17 -1 17 -1 1 -11z"/>
<path d="M1230 14440 c0 -5 5 -10 11 -10 5 0 7 5 4 10 -3 6 -8 10 -11 10 -2 0
-4 -4 -4 -10z"/>
<path d="M707 14410 c-3 -12 0 -20 8 -20 8 0 11 8 8 20 -3 11 -7 20 -8 20 -1
0 -5 -9 -8 -20z"/>
<path d="M1990 14390 c0 -13 5 -20 13 -17 6 2 12 10 12 17 0 7 -6 15 -12 18
-8 2 -13 -5 -13 -18z"/>
<path d="M705 13000 c-8 -25 10 -50 36 -50 20 0 36 40 24 59 -11 19 -53 12
-60 -9z"/>
<path d="M1425 12660 c3 -5 13 -10 21 -10 8 0 12 5 9 10 -3 6 -13 10 -21 10
-8 0 -12 -4 -9 -10z"/>
<path d="M2360 12700 c0 -5 5 -10 11 -10 5 0 7 5 4 10 -3 6 -8 10 -11 10 -2 0
-4 -4 -4 -10z"/>
<path d="M707 12670 c-3 -12 0 -20 8 -20 8 0 11 8 8 20 -3 11 -7 20 -8 20 -1
0 -5 -9 -8 -20z"/>
<path d="M955 12670 c-4 -6 -3 -16 3 -22 6 -6 12 -6 17 2 4 6 3 16 -3 22 -6 6
-12 6 -17 -2z"/>
<path d="M1805 12670 c-4 -6 -3 -16 3 -22 6 -6 12 -6 17 2 4 6 3 16 -3 22 -6
6 -12 6 -17 -2z"/>
<path d="M1328 12663 c7 -3 16 -2 19 1 4 3 -2 6 -13 5 -11 0 -14 -3 -6 -6z"/>
<path d="M855 11940 c-7 -12 2 -30 16 -30 5 0 9 9 9 20 0 21 -15 27 -25 10z"/>
<path d="M705 11260 c-8 -25 10 -50 36 -50 20 0 36 40 24 59 -11 19 -53 12
-60 -9z"/>
<path d="M707 10930 c-3 -12 0 -20 8 -20 8 0 11 8 8 20 -3 11 -7 20 -8 20 -1
0 -5 -9 -8 -20z"/>
<path d="M2424 10935 c-8 -19 2 -45 16 -45 5 0 10 14 10 30 0 31 -16 41 -26
15z"/>
<path d="M2295 10930 c-4 -6 -3 -16 3 -22 6 -6 12 -6 17 2 4 6 3 16 -3 22 -6
6 -12 6 -17 -2z"/>
<path d="M1178 10923 c7 -3 16 -2 19 1 4 3 -2 6 -13 5 -11 0 -14 -3 -6 -6z"/>
<path d="M1715 10920 c-7 -12 2 -30 16 -30 5 0 9 9 9 20 0 21 -15 27 -25 10z"/>
<path d="M556 8994 c-31 -30 -9 -84 34 -84 24 0 50 26 50 50 0 24 -26 50 -50
50 -10 0 -26 -7 -34 -16z"/>
<path d="M907 8955 c-8 -18 11 -31 25 -17 11 11 3 32 -12 32 -4 0 -10 -7 -13
-15z"/>
<path d="M1310 8990 c0 -5 5 -10 10 -10 6 0 10 5 10 10 0 6 -4 10 -10 10 -5 0
-10 -4 -10 -10z"/>
<path d="M2270 8990 c0 -5 5 -10 10 -10 6 0 10 5 10 10 0 6 -4 10 -10 10 -5 0
-10 -4 -10 -10z"/>
<path d="M990 8505 c0 -8 7 -15 15 -15 8 0 15 7 15 15 0 8 -7 15 -15 15 -8 0
-15 -7 -15 -15z"/>
<path d="M1935 8520 c-7 -12 2 -30 16 -30 5 0 9 9 9 20 0 21 -15 27 -25 10z"/>
<path d="M552 8058 c-7 -7 -12 -24 -12 -38 0 -33 17 -50 50 -50 33 0 50 17 50
50 0 33 -17 50 -50 50 -14 0 -31 -5 -38 -12z"/>
<path d="M907 8015 c-8 -18 11 -31 25 -17 11 11 3 32 -12 32 -4 0 -10 -7 -13
-15z"/>
<path d="M1400 8035 c0 -8 7 -15 15 -15 8 0 15 7 15 15 0 8 -7 15 -15 15 -8 0
-15 -7 -15 -15z"/>
<path d="M2520 8050 c0 -5 5 -10 10 -10 6 0 10 5 10 10 0 6 -4 10 -10 10 -5 0
-10 -4 -10 -10z"/>
<path d="M3160 8050 c0 -5 5 -10 10 -10 6 0 10 5 10 10 0 6 -4 10 -10 10 -5 0
-10 -4 -10 -10z"/>
<path d="M2378 8023 c7 -3 16 -2 19 1 4 3 -2 6 -13 5 -11 0 -14 -3 -6 -6z"/>
<path d="M3098 8023 c7 -3 16 -2 19 1 4 3 -2 6 -13 5 -11 0 -14 -3 -6 -6z"/>
<path d="M552 7118 c-20 -20 -15 -66 9 -78 49 -27 96 20 69 69 -12 24 -58 29
-78 9z"/>
<path d="M907 7075 c-8 -18 11 -31 25 -17 11 11 3 32 -12 32 -4 0 -10 -7 -13
-15z"/>
<path d="M1084 7095 c-9 -21 3 -45 21 -45 10 0 15 10 15 30 0 32 -26 43 -36
15z"/>
<path d="M1370 7080 c0 -19 5 -30 14 -30 17 0 28 24 20 45 -11 27 -34 17 -34
-15z"/>
<path d="M1650 7070 c0 -11 7 -20 15 -20 8 0 15 9 15 20 0 11 -7 20 -15 20 -8
0 -15 -9 -15 -20z"/>
<path d="M1798 7083 c7 -3 16 -2 19 1 4 3 -2 6 -13 5 -11 0 -14 -3 -6 -6z"/>
<path d="M1870 7060 c0 -5 5 -10 10 -10 6 0 10 5 10 10 0 6 -4 10 -10 10 -5 0
-10 -4 -10 -10z"/>
<path d="M1978 7083 c7 -3 16 -2 19 1 4 3 -2 6 -13 5 -11 0 -14 -3 -6 -6z"/>
<path d="M556 6174 c-31 -30 -9 -84 34 -84 24 0 50 26 50 50 0 24 -26 50 -50
50 -10 0 -26 -7 -34 -16z"/>
<path d="M3225 6140 c3 -5 13 -10 21 -10 8 0 12 5 9 10 -3 6 -13 10 -21 10 -8
0 -12 -4 -9 -10z"/>
<path d="M1490 6170 c0 -5 5 -10 10 -10 6 0 10 5 10 10 0 6 -4 10 -10 10 -5 0
-10 -4 -10 -10z"/>
<path d="M2496 6151 c-4 -7 -5 -15 -2 -18 9 -9 19 4 14 18 -4 11 -6 11 -12 0z"/>
<path d="M3014 6155 c-8 -19 2 -45 16 -45 5 0 10 14 10 30 0 31 -16 41 -26 15z"/>
<path d="M910 6120 c0 -5 5 -10 10 -10 6 0 10 5 10 10 0 6 -4 10 -10 10 -5 0
-10 -4 -10 -10z"/>
<path d="M980 6130 c0 -11 7 -20 15 -20 8 0 15 9 15 20 0 11 -7 20 -15 20 -8
0 -15 -9 -15 -20z"/>
<path d="M1268 6143 c7 -3 16 -2 19 1 4 3 -2 6 -13 5 -11 0 -14 -3 -6 -6z"/>
<path d="M1428 6143 c7 -3 16 -2 19 1 4 3 -2 6 -13 5 -11 0 -14 -3 -6 -6z"/>
<path d="M2845 6140 c-7 -12 2 -30 16 -30 5 0 9 9 9 20 0 21 -15 27 -25 10z"/>
<path d="M2898 6143 c7 -3 16 -2 19 1 4 3 -2 6 -13 5 -11 0 -14 -3 -6 -6z"/>
<path d="M3958 6143 c7 -3 16 -2 19 1 4 3 -2 6 -13 5 -11 0 -14 -3 -6 -6z"/>
<path d="M552 5238 c-7 -7 -12 -24 -12 -38 0 -33 17 -50 50 -50 33 0 50 17 50
50 0 33 -17 50 -50 50 -14 0 -31 -5 -38 -12z"/>
<path d="M907 5195 c-8 -18 11 -31 25 -17 11 11 3 32 -12 32 -4 0 -10 -7 -13
-15z"/>
<path d="M2060 5190 c0 -11 7 -20 15 -20 8 0 15 9 15 20 0 11 -7 20 -15 20 -8
0 -15 -9 -15 -20z"/>
<path d="M1267 5210 c-3 -11 -1 -20 4 -20 5 0 9 9 9 20 0 11 -2 20 -4 20 -2 0
-6 -9 -9 -20z"/>
<path d="M1085 5210 c-4 -6 -3 -16 3 -22 6 -6 12 -6 17 2 4 6 3 16 -3 22 -6 6
-12 6 -17 -2z"/>
<path d="M1558 5203 c7 -3 16 -2 19 1 4 3 -2 6 -13 5 -11 0 -14 -3 -6 -6z"/>
<path d="M1635 5180 c-3 -5 -1 -10 4 -10 6 0 11 5 11 10 0 6 -2 10 -4 10 -3 0
-8 -4 -11 -10z"/>
<path d="M2300 5180 c0 -5 5 -10 10 -10 6 0 10 5 10 10 0 6 -4 10 -10 10 -5 0
-10 -4 -10 -10z"/>
<path d="M2430 5190 c0 -13 5 -20 13 -17 6 2 12 10 12 17 0 7 -6 15 -12 18 -8
2 -13 -5 -13 -18z"/>
</g>
</svg>
